<svg width="157" height="156" viewBox="0 0 157 156" fill="none" xmlns="http://www.w3.org/2000/svg">
<path d="M78.1909 105.628C62.6462 105.628 50 93.2789 50 78.0985C50 62.9219 62.6458 50.5728 78.1909 50.5728C93.7357 50.5728 106.382 62.9219 106.382 78.0985C106.382 93.2786 93.736 105.628 78.1909 105.628Z" fill="#FEFEFE"/>
<g filter="url(#filter0_d)">
<path d="M78.1909 105.628C62.6462 105.628 50 93.2789 50 78.0985C50 62.9219 62.6458 50.5728 78.1909 50.5728C93.7357 50.5728 106.382 62.9219 106.382 78.0985C106.382 93.2786 93.736 105.628 78.1909 105.628ZM78.1909 57.838C66.7473 57.838 57.4402 66.9271 57.4402 78.0985C57.4402 89.2737 66.7476 98.3624 78.1909 98.3624C89.6346 98.3624 98.9417 89.2733 98.9417 78.0985C98.9417 66.9271 89.6343 57.838 78.1909 57.838Z" fill="#47B247"/>
</g>
<path fill-rule="evenodd" clip-rule="evenodd" d="M93.4839 75.1975C93.2392 74.3585 92.4881 73.7322 91.56 73.7322C91.3558 73.7322 91.1702 73.7916 90.9843 73.8471C90.9628 73.836 88.6025 74.5345 87.3296 74.5345C82.2771 74.5345 78.1819 70.4886 78.1819 65.4976C78.1819 65.4022 78.1893 65.201 78.1806 65.1931C78.1806 65.1909 78.1819 65.189 78.1819 65.1861C78.1819 64.0758 77.2703 63.1755 76.146 63.1755C76.0076 63.1755 75.8866 63.2276 75.7552 63.2536C75.7292 63.2469 75.7735 63.2498 75.7552 63.2536C69.0483 64.6985 63.9297 70.5584 63.9297 77.6177C63.9297 85.7606 70.6115 92.3615 78.8543 92.3615C87.0971 92.3615 93.779 85.7606 93.779 77.6177C93.779 76.8284 93.6046 75.9528 93.4835 75.1975C93.48 75.175 93.5185 75.2302 93.4835 75.1975H93.4839Z" fill="#2E3134"/>
<path d="M92.8309 49.9089C91.3125 49.9089 89.903 48.9286 89.4073 47.3882C87.8575 42.5498 83.4392 39.3017 78.4203 39.3017C73.6156 39.3017 69.2607 42.368 67.5877 46.9357C66.8916 48.8255 64.8252 49.7915 62.9589 49.0857C61.0959 48.3832 60.1471 46.2795 60.8392 44.39C63.5561 36.9808 70.6209 32 78.4203 32C86.5675 32 93.7342 37.2769 96.2544 45.1283C96.8693 47.0465 95.836 49.1075 93.9451 49.7312C93.5759 49.8527 93.2 49.9095 92.8309 49.9095V49.9089Z" fill="#96C22B"/>
<defs>
<filter id="filter0_d" x="0" y="0.572754" width="156.382" height="155.055" filterUnits="userSpaceOnUse" color-interpolation-filters="sRGB">
<feFlood flood-opacity="0" result="BackgroundImageFix"/>
<feColorMatrix in="SourceAlpha" type="matrix" values="0 0 0 0 0 0 0 0 0 0 0 0 0 0 0 0 0 0 127 0"/>
<feOffset/>
<feGaussianBlur stdDeviation="25"/>
<feColorMatrix type="matrix" values="0 0 0 0 1 0 0 0 0 1 0 0 0 0 1 0 0 0 1 0"/>
<feBlend mode="normal" in2="BackgroundImageFix" result="effect1_dropShadow"/>
<feBlend mode="normal" in="SourceGraphic" in2="effect1_dropShadow" result="shape"/>
</filter>
</defs>
</svg>
