<svg width="47" height="48" viewBox="0 0 47 48" fill="none" xmlns="http://www.w3.org/2000/svg">
<path d="M0.951908 5.12485C4.66862 5.12485 5.52632 3.40945 6.24107 1.26519H9.52893V31.7136H4.66862V8.55566H0.951908V5.12485Z" fill="white"/>
<path d="M14.818 8.69859C14.818 3.83828 17.3911 0.979271 22.1085 0.979271C26.8259 0.979271 29.399 3.69533 29.399 8.69859V24.5661C29.399 29.4264 26.8259 32.2854 22.1085 32.2854C17.3911 32.2854 14.818 29.5694 14.818 24.5661V8.69859ZM19.6783 24.852C19.6783 26.9962 20.679 27.8539 22.1085 27.8539C23.681 27.8539 24.5387 26.9962 24.5387 24.852V8.26974C24.5387 6.12549 23.538 5.26778 22.1085 5.26778C20.536 5.26778 19.6783 6.12549 19.6783 8.26974V24.852Z" fill="white"/>
<path d="M32.1152 8.69859C32.1152 3.83828 34.6883 0.979271 39.4056 0.979271C44.123 0.979271 46.6961 3.69533 46.6961 8.69859V24.5661C46.6961 29.4264 44.123 32.2854 39.4056 32.2854C34.6883 32.2854 32.1152 29.5694 32.1152 24.5661V8.69859ZM36.8325 24.852C36.8325 26.9962 37.8332 27.8539 39.2627 27.8539C40.8351 27.8539 41.6928 26.9962 41.6928 24.852V8.26974C41.6928 6.12549 40.6922 5.26778 39.2627 5.26778C37.6902 5.26778 36.8325 6.12549 36.8325 8.26974V24.852Z" fill="white"/>
<path d="M8.24252 43.7214L9.38612 36.1451H11.6733V46.7234H10.1009V39.0041L8.95727 46.7234H7.38482L6.09826 39.147V46.7234H4.66876V36.0021H6.95596L8.24252 43.7214Z" fill="white"/>
<path d="M13.8175 46.7234V36.0021H18.5349V37.5746H15.5329V40.2906H16.5336C18.249 40.2906 19.1067 41.2913 19.1067 43.0067V44.1503C19.1067 45.8657 18.249 46.8663 16.5336 46.8663H13.8175V46.7234ZM16.5336 45.2939C17.1054 45.2939 17.3913 45.008 17.3913 44.2932V42.8637C17.3913 42.149 17.1054 41.8631 16.5336 41.8631H15.5329V45.2939H16.5336Z" fill="white"/>
<path d="M24.6819 36.145H26.1114L21.8229 46.8663H20.3934L24.6819 36.145Z" fill="white"/>
<path d="M32.544 42.8637V44.2932C32.544 46.0086 31.6863 47.0093 29.9709 47.0093C28.2555 47.0093 27.3978 46.0086 27.3978 44.2932V38.7182C27.3978 37.0028 28.2555 36.0021 29.9709 36.0021C31.6863 36.0021 32.544 37.0028 32.544 38.7182V39.7188H30.9716V38.5752C30.9716 37.8605 30.6857 37.5746 30.1139 37.5746C29.5421 37.5746 29.2562 37.8605 29.2562 38.5752V44.2932C29.2562 45.008 29.5421 45.2939 30.1139 45.2939C30.6857 45.2939 30.9716 45.008 30.9716 44.2932V42.7208H32.544V42.8637Z" fill="white"/>
<path d="M36.118 40.5765H38.4052V42.149H36.118V45.2939H38.977V46.7234H34.4026V36.0021H38.977V37.5746H36.118V40.5765Z" fill="white"/>
<path d="M43.1223 42.5778L42.5505 43.5785V46.7234H40.9781V36.0021H42.6935V40.7195L44.8377 36.0021H46.5531L44.2659 40.7195L46.5531 46.7234H44.8377L43.1223 42.5778Z" fill="white"/>
</svg>
