<svg width="44" height="35" viewBox="0 0 44 35" fill="none" xmlns="http://www.w3.org/2000/svg">
<path d="M23.1664 27.2079H2.88073C2.2221 27.2079 1.56348 26.681 1.56348 25.8907V3.89251C1.56348 3.10216 2.09038 2.57526 2.88073 2.57526H8.14975" stroke="white" stroke-width="2" stroke-miterlimit="10" stroke-linecap="round" stroke-linejoin="round"/>
<path d="M37.6562 2.57526H40.8177C41.608 2.57526 42.1349 3.10216 42.1349 3.89251V25.8907C42.1349 26.681 41.608 27.2079 40.8177 27.2079H39.8956" stroke="white" stroke-width="2" stroke-miterlimit="10" stroke-linecap="round" stroke-linejoin="round"/>
<path d="M26.4596 33.2673H17.2388V27.0762H25.1423C25.9326 27.0762 26.4596 27.6031 26.4596 28.3935V33.2673Z" stroke="white" stroke-width="2" stroke-miterlimit="10"/>
<path d="M33.441 33.2673H10.2573" stroke="white" stroke-width="2" stroke-miterlimit="10" stroke-linecap="round"/>
<path d="M8.41325 26.0224C8.41325 26.0224 4.85667 20.8851 5.25184 14.8257C5.64702 8.76637 9.73051 2.97046 20.9272 1.38975C32.1238 -0.190955 37.5246 6.39532 38.4467 14.4306C39.3687 22.4658 36.6025 26.1541 33.1776 26.9445C29.7528 27.7348 26.7231 23.3879 29.6211 20.0948" stroke="white" stroke-width="2" stroke-miterlimit="10" stroke-linecap="round"/>
<path d="M14.604 26.1541C14.604 26.1541 15.6578 23.2562 18.5558 23.2562C21.4537 23.2562 22.1124 26.1541 22.1124 26.1541" stroke="white" stroke-width="2" stroke-miterlimit="10" stroke-linecap="round"/>
<path d="M26.196 6.13187C25.1422 5.47324 23.9566 5.07806 22.6394 5.07806C18.9511 5.07806 15.9214 8.10775 15.9214 11.7961C15.9214 13.7719 16.7117 15.6161 18.1607 16.8016" stroke="white" stroke-width="2" stroke-miterlimit="10" stroke-linecap="round"/>
<path d="M28.5669 13.3768C27.7765 14.1671 27.7765 15.4844 28.5669 16.2747" stroke="white" stroke-width="2" stroke-miterlimit="10" stroke-linecap="round"/>
<path d="M31.6426 9.12152L31.7643 9.22156" stroke="white" stroke-width="2" stroke-linecap="round" stroke-linejoin="round"/>
</svg>
