<svg width="43" height="91" viewBox="0 0 43 91" fill="none" xmlns="http://www.w3.org/2000/svg">
<path d="M35.4233 61.9597H8.27532C5.04341 61.9597 2.45789 59.3742 2.45789 56.1423V8.31002C2.45789 5.07811 5.04341 2.49258 8.27532 2.49258H35.4233C38.6553 2.49258 41.2408 5.07811 41.2408 8.31002V56.1423C41.2408 59.3742 38.6553 61.9597 35.4233 61.9597Z" stroke="white" stroke-width="3" stroke-miterlimit="10"/>
<path d="M27.0201 61.9598H16.678V79.1536H27.0201V61.9598Z" stroke="white" stroke-width="3" stroke-miterlimit="10"/>
<path d="M21.85 30.9344C26.8478 30.9344 30.8993 26.8828 30.8993 21.885C30.8993 16.8872 26.8478 12.8357 21.85 12.8357C16.8522 12.8357 12.8007 16.8872 12.8007 21.885C12.8007 26.8828 16.8522 30.9344 21.85 30.9344Z" stroke="white" stroke-width="3" stroke-miterlimit="10"/>
<path d="M21.8497 51.1015C24.92 51.1015 27.409 48.6125 27.409 45.5422C27.409 42.4719 24.92 39.9829 21.8497 39.9829C18.7793 39.9829 16.2903 42.4719 16.2903 45.5422C16.2903 48.6125 18.7793 51.1015 21.8497 51.1015Z" stroke="white" stroke-width="3" stroke-miterlimit="10"/>
<path d="M2.32819 88.2029V84.3246C2.32819 81.4806 4.65516 79.1536 7.49924 79.1536H36.1986C39.0427 79.1536 41.3696 81.4806 41.3696 84.3246V88.2029C41.3696 88.9786 40.8525 89.4957 40.0769 89.4957H3.62095C2.84529 89.4957 2.32819 88.9786 2.32819 88.2029Z" stroke="white" stroke-width="3" stroke-miterlimit="10"/>
</svg>
