<svg width="113" height="79" viewBox="0 0 113 79" fill="none" xmlns="http://www.w3.org/2000/svg">
<path d="M54.7832 76.5087H7.5332C4.18633 76.5087 1.62695 73.9685 1.62695 70.6467V23.7501C1.62695 20.4283 4.18633 17.888 7.5332 17.888H54.7832C58.1301 17.888 60.6895 20.4283 60.6895 23.7501V70.6467C60.6895 73.9685 58.1301 76.5087 54.7832 76.5087Z" stroke="white" stroke-width="3" stroke-miterlimit="10"/>
<path d="M18.3614 30.7846L11.6677 37.6237" stroke="white" stroke-width="3" stroke-miterlimit="10" stroke-linecap="round" stroke-linejoin="round"/>
<path d="M11.6677 30.7846L18.3614 37.6237" stroke="white" stroke-width="3" stroke-miterlimit="10" stroke-linecap="round" stroke-linejoin="round"/>
<path d="M15.0145 13.3938V22.9685" stroke="white" stroke-width="4" stroke-miterlimit="10" stroke-linecap="round" stroke-linejoin="round"/>
<path d="M47.3019 13.3938V22.9685" stroke="white" stroke-width="4" stroke-miterlimit="10" stroke-linecap="round" stroke-linejoin="round"/>
<path d="M34.5051 30.7846L27.8114 37.6237" stroke="white" stroke-width="3" stroke-miterlimit="10" stroke-linecap="round" stroke-linejoin="round"/>
<path d="M27.8114 30.7846L34.5051 37.6237" stroke="white" stroke-width="3" stroke-miterlimit="10" stroke-linecap="round" stroke-linejoin="round"/>
<path d="M50.8457 30.7846L43.9551 37.6237" stroke="white" stroke-width="3" stroke-miterlimit="10" stroke-linecap="round" stroke-linejoin="round"/>
<path d="M43.9551 30.7846L50.8457 37.6237" stroke="white" stroke-width="3" stroke-miterlimit="10" stroke-linecap="round" stroke-linejoin="round"/>
<path d="M18.3614 46.4168L11.6677 53.2559" stroke="white" stroke-width="3" stroke-miterlimit="10" stroke-linecap="round" stroke-linejoin="round"/>
<path d="M11.6677 46.4168L18.3614 53.2559" stroke="white" stroke-width="3" stroke-miterlimit="10" stroke-linecap="round" stroke-linejoin="round"/>
<path d="M34.5051 46.4168L27.8114 53.2559" stroke="white" stroke-width="3" stroke-miterlimit="10" stroke-linecap="round" stroke-linejoin="round"/>
<path d="M27.8114 46.4168L34.5051 53.2559" stroke="white" stroke-width="3" stroke-miterlimit="10" stroke-linecap="round" stroke-linejoin="round"/>
<path d="M47.3019 53.4513C49.259 53.4513 50.8456 51.8766 50.8456 49.9341C50.8456 47.9915 49.259 46.4168 47.3019 46.4168C45.3447 46.4168 43.7581 47.9915 43.7581 49.9341C43.7581 51.8766 45.3447 53.4513 47.3019 53.4513Z" stroke="white" stroke-width="3" stroke-miterlimit="10" stroke-linecap="round" stroke-linejoin="round"/>
<path d="M47.3019 68.888C49.259 68.888 50.8456 67.3133 50.8456 65.3708C50.8456 63.4283 49.259 61.8536 47.3019 61.8536C45.3447 61.8536 43.7581 63.4283 43.7581 65.3708C43.7581 67.3133 45.3447 68.888 47.3019 68.888Z" stroke="white" stroke-width="3" stroke-miterlimit="10" stroke-linecap="round" stroke-linejoin="round"/>
<path d="M31.1582 68.888C33.1153 68.888 34.7019 67.3133 34.7019 65.3708C34.7019 63.4283 33.1153 61.8536 31.1582 61.8536C29.201 61.8536 27.6144 63.4283 27.6144 65.3708C27.6144 67.3133 29.201 68.888 31.1582 68.888Z" stroke="white" stroke-width="3" stroke-miterlimit="10" stroke-linecap="round" stroke-linejoin="round"/>
<path d="M15.0145 68.888C16.9716 68.888 18.5582 67.3133 18.5582 65.3708C18.5582 63.4283 16.9716 61.8536 15.0145 61.8536C13.0573 61.8536 11.4707 63.4283 11.4707 65.3708C11.4707 67.3133 13.0573 68.888 15.0145 68.888Z" stroke="white" stroke-width="3" stroke-miterlimit="10" stroke-linecap="round" stroke-linejoin="round"/>
<path d="M105.771 52.8472H82.4546C79.6789 52.8472 77.4583 50.6266 77.4583 47.8508V6.76956C77.4583 3.9938 79.6789 1.77319 82.4546 1.77319H105.771C108.547 1.77319 110.767 3.9938 110.767 6.76956V47.8508C110.767 50.6266 108.547 52.8472 105.771 52.8472Z" stroke="white" stroke-width="3" stroke-miterlimit="10"/>
<path d="M98.5532 52.8471H89.6707V67.6141H98.5532V52.8471Z" stroke="white" stroke-width="3" stroke-miterlimit="10"/>
<path d="M94.1127 26.2005C98.4051 26.2005 101.885 22.7208 101.885 18.4284C101.885 14.136 98.4051 10.6563 94.1127 10.6563C89.8202 10.6563 86.3405 14.136 86.3405 18.4284C86.3405 22.7208 89.8202 26.2005 94.1127 26.2005Z" stroke="white" stroke-width="3" stroke-miterlimit="10"/>
<path d="M94.1124 43.5213C96.7494 43.5213 98.8871 41.3836 98.8871 38.7466C98.8871 36.1097 96.7494 33.972 94.1124 33.972C91.4754 33.972 89.3378 36.1097 89.3378 38.7466C89.3378 41.3836 91.4754 43.5213 94.1124 43.5213Z" stroke="white" stroke-width="3" stroke-miterlimit="10"/>
<path d="M77.3462 75.3862V72.0553C77.3462 69.6127 79.3447 67.6141 81.7874 67.6141H106.436C108.879 67.6141 110.877 69.6127 110.877 72.0553V75.3862C110.877 76.0524 110.433 76.4965 109.767 76.4965H78.4565C77.7903 76.4965 77.3462 76.0524 77.3462 75.3862Z" stroke="white" stroke-width="3" stroke-miterlimit="10"/>
</svg>
