<svg width="47" height="36" viewBox="0 0 47 36" fill="none" xmlns="http://www.w3.org/2000/svg">
<path d="M43.8546 34.5488H2.94753C2.18053 34.5488 1.66919 34.0374 1.66919 33.2704V27.1344C1.66919 24.9612 3.33104 23.2993 5.50422 23.2993H41.2979C43.4711 23.2993 45.1329 24.9612 45.1329 27.1344V33.2704C45.1329 34.0374 44.6216 34.5488 43.8546 34.5488Z" stroke="white" stroke-width="2" stroke-miterlimit="10"/>
<path d="M8.44445 23.0437L4.22591 5.65821" stroke="white" stroke-width="2" stroke-miterlimit="10" stroke-linecap="round"/>
<path d="M38.102 23.0437L42.4484 5.65821" stroke="white" stroke-width="2" stroke-miterlimit="10" stroke-linecap="round"/>
<path d="M23.4011 18.3138C24.7425 18.3138 25.83 17.2264 25.83 15.885C25.83 14.5436 24.7425 13.4561 23.4011 13.4561C22.0597 13.4561 20.9723 14.5436 20.9723 15.885C20.9723 17.2264 22.0597 18.3138 23.4011 18.3138Z" stroke="white" stroke-width="2" stroke-miterlimit="10"/>
<path d="M30.0483 11.7942C28.3865 10.1324 25.9576 9.10971 23.4009 9.10971C20.8443 9.10971 18.4154 10.1324 16.7536 11.7942" stroke="white" stroke-width="2" stroke-miterlimit="10" stroke-linecap="round"/>
<path d="M32.7327 9.10974C30.3039 6.68088 26.9802 5.2747 23.4008 5.2747C19.6936 5.2747 16.3699 6.68088 14.0689 9.10974" stroke="white" stroke-width="2" stroke-miterlimit="10" stroke-linecap="round"/>
<path d="M35.5453 6.42524C32.3494 3.35721 28.1309 1.4397 23.401 1.4397C18.6711 1.4397 14.4526 3.35721 11.2567 6.42524" stroke="white" stroke-width="2" stroke-miterlimit="10" stroke-linecap="round"/>
<path d="M37.9742 29.1798H33.3722" stroke="white" stroke-width="2" stroke-miterlimit="10" stroke-linecap="round"/>
<path d="M9.7227 29.1798H8.18869" stroke="white" stroke-width="2" stroke-miterlimit="10" stroke-linecap="round"/>
<path d="M16.1145 29.1798H14.5805" stroke="white" stroke-width="2" stroke-miterlimit="10" stroke-linecap="round"/>
</svg>
