<svg width="82" height="62" viewBox="0 0 82 62" fill="none" xmlns="http://www.w3.org/2000/svg">
<path fill-rule="evenodd" clip-rule="evenodd" d="M19.4274 61.0974C18.9989 61.0965 18.582 60.958 18.2382 60.7024C17.8943 60.4467 17.6416 60.0874 17.5174 59.6774L0.0873645 2.58736C-0.0677871 2.07947 -0.0148268 1.53075 0.234597 1.06191C0.48402 0.593072 0.909477 0.242516 1.41737 0.0873642C1.92526 -0.0677875 2.47398 -0.0148262 2.94282 0.234597C3.41166 0.484021 3.76221 0.909475 3.91737 1.41736L20.9199 57.1074H79.5073C80.0377 57.1074 80.5464 57.3181 80.9215 57.6931C81.2966 58.0682 81.5073 58.5769 81.5073 59.1074C81.5073 59.6378 81.2966 60.1465 80.9215 60.5216C80.5464 60.8966 80.0377 61.1074 79.5073 61.1074H19.8173C19.7358 61.1074 19.6548 61.1024 19.5747 61.0926C19.5258 61.096 19.4766 61.0976 19.4274 61.0974ZM69.7543 48.0504C69.839 48.1134 69.9418 48.1475 70.0473 48.1474C70.0988 48.1471 70.1497 48.1369 70.1973 48.1174C70.2606 48.098 70.3194 48.0663 70.3703 48.024C70.4212 47.9818 70.4632 47.9299 70.4939 47.8713C70.5246 47.8127 70.5434 47.7486 70.5491 47.6827C70.5548 47.6168 70.5474 47.5504 70.5273 47.4874C70.4844 47.3546 70.4409 47.2221 70.397 47.0898L72.9373 42.4974C72.9687 42.4404 72.9885 42.3777 72.9955 42.313C73.0025 42.2483 72.9965 42.1828 72.9778 42.1204C72.9592 42.058 72.9284 42 72.887 41.9497C72.8457 41.8994 72.7948 41.8578 72.7373 41.8274C72.6219 41.7626 72.4855 41.7462 72.358 41.7818C72.2306 41.8175 72.1224 41.9021 72.0573 42.0174L69.9593 45.82C66.0164 34.7957 58.8348 25.202 49.3372 18.3089C39.7225 11.3309 28.2124 7.46747 16.3561 7.21994L19.4473 4.60736C19.506 4.56838 19.5558 4.51744 19.5934 4.45789C19.631 4.39833 19.6556 4.33151 19.6656 4.26179C19.6756 4.19206 19.6707 4.12102 19.6513 4.0533C19.6319 3.98559 19.5984 3.92273 19.5531 3.86886C19.5077 3.81498 19.4515 3.7713 19.388 3.74067C19.3246 3.71005 19.2554 3.69316 19.185 3.69113C19.1146 3.6891 19.0446 3.70197 18.9795 3.7289C18.9144 3.75582 18.8557 3.79619 18.8073 3.84736L14.5573 7.37736C14.4566 7.46446 14.394 7.58748 14.3828 7.72015C14.3716 7.85281 14.4127 7.9846 14.4973 8.08736L18.0373 12.3274C18.0833 12.3837 18.1413 12.4291 18.2071 12.4602C18.2728 12.4913 18.3446 12.5074 18.4173 12.5074C18.4833 12.5156 18.5502 12.5101 18.6139 12.4912C18.6776 12.4723 18.7366 12.4403 18.7873 12.3974C18.8873 12.3103 18.9503 12.1882 18.9633 12.0563C18.9763 11.9243 18.9384 11.7923 18.8573 11.6874L15.9591 8.21309C27.7444 8.38152 39.1989 12.1861 48.7502 19.118C58.1689 25.9537 65.2701 35.4917 69.1223 46.4497L64.8573 44.0874C64.7995 44.0559 64.7361 44.036 64.6706 44.029C64.6052 44.022 64.539 44.028 64.4759 44.0465C64.4127 44.0651 64.3539 44.0959 64.3026 44.1373C64.2514 44.1786 64.2088 44.2296 64.1773 44.2874C64.1458 44.3451 64.1259 44.4086 64.1189 44.474C64.1119 44.5395 64.1179 44.6056 64.1365 44.6688C64.155 44.7319 64.1859 44.7908 64.2272 44.842C64.2685 44.8933 64.3195 44.9359 64.3773 44.9674L69.4473 47.7774C69.4915 47.8004 69.5386 47.817 69.5872 47.8269C69.62 47.9158 69.6779 47.9935 69.7543 48.0504Z" fill="white"/>
</svg>
