<svg width="74" height="74" viewBox="0 0 74 74" fill="none" xmlns="http://www.w3.org/2000/svg">
<path d="M70.9 70.9H54.39V66.5C54.3892 65.0538 54.1353 63.6188 53.64 62.26C54.2662 61.9324 54.9418 61.7095 55.64 61.6L59.55 65.5C59.681 65.6319 59.8368 65.7365 60.0085 65.8079C60.1801 65.8793 60.3641 65.916 60.55 65.916C60.7359 65.916 60.9199 65.8793 61.0915 65.8079C61.2632 65.7365 61.419 65.6319 61.55 65.5L65.45 61.6C66.9735 61.8531 68.358 62.6379 69.3576 63.8151C70.3572 64.9923 70.9072 66.4857 70.91 68.03V70.86L70.9 70.9ZM48.71 70.9H22.27V68.02H31.66C31.8491 68.02 32.0364 67.9828 32.2111 67.9104C32.3858 67.8381 32.5445 67.732 32.6782 67.5983C32.812 67.4646 32.918 67.3058 32.9904 67.1311C33.0628 66.9564 33.1 66.7691 33.1 66.58C33.1 66.3909 33.0628 66.2037 32.9904 66.029C32.918 65.8543 32.812 65.6955 32.6782 65.5618C32.5445 65.4281 32.3858 65.322 32.2111 65.2497C32.0364 65.1773 31.8491 65.14 31.66 65.14H22.38C22.6845 63.1381 23.6279 61.2883 25.0696 59.8664C26.5113 58.4445 28.3741 57.5268 30.38 57.25L35.86 62.74C36.1296 62.9968 36.4877 63.14 36.86 63.14C37.2323 63.14 37.5904 62.9968 37.86 62.74L43.34 57.25C45.5895 57.5448 47.6562 58.6439 49.1581 60.3443C50.6599 62.0447 51.4954 64.2314 51.51 66.5V70.86L48.71 70.9ZM2.88 68.07C2.88278 66.5257 3.43281 65.0323 4.43243 63.8551C5.43204 62.6779 6.81652 61.8931 8.34 61.64L12.24 65.54C12.506 65.8038 12.8654 65.9519 13.24 65.9519C13.6146 65.9519 13.974 65.8038 14.24 65.54L18.14 61.64C18.8368 61.7553 19.5115 61.978 20.14 62.3C19.6366 63.6569 19.3792 65.0928 19.38 66.54V70.9H2.88V68.07ZM9.5 50.22C9.49998 49.5551 9.76273 48.9172 10.231 48.4452C10.6993 47.9732 11.3351 47.7053 12 47.7H17V49.5C17 49.9138 16.8356 50.3106 16.5431 50.6031C16.2505 50.8957 15.8537 51.06 15.44 51.06H9.44V50.27L9.5 50.22ZM14.19 61.56L13.26 62.49L12.33 61.56H14.19ZM17 54.92C17 55.4138 16.9027 55.9027 16.7138 56.3589C16.5248 56.8151 16.2479 57.2296 15.8987 57.5788C15.5496 57.9279 15.1351 58.2049 14.6789 58.3938C14.2227 58.5828 13.7338 58.68 13.24 58.68C12.7462 58.68 12.2573 58.5828 11.8011 58.3938C11.3449 58.2049 10.9304 57.9279 10.5813 57.5788C10.2321 57.2296 9.95517 56.8151 9.76621 56.3589C9.57726 55.9027 9.48 55.4138 9.48 54.92V53.92H15.48C16.0134 53.9205 16.5424 53.8222 17.04 53.63V54.94L17 54.92ZM31.25 42.27C31.25 41.2268 31.6637 40.2262 32.4005 39.4876C33.1372 38.749 34.1368 38.3327 35.18 38.33H42.5V41.23C42.5 41.9302 42.2219 42.6017 41.7268 43.0968C41.2317 43.5919 40.5602 43.87 39.86 43.87H31.27V42.27H31.25ZM39.38 57.17L36.87 59.68L34.36 57.17H39.38ZM31.25 46.76H39.86C40.7831 46.7581 41.6908 46.5243 42.5 46.08V48.66C42.532 49.4187 42.4102 50.176 42.1419 50.8863C41.8737 51.5967 41.4645 52.2454 40.939 52.7935C40.4135 53.3416 39.7826 53.7778 39.0842 54.0757C38.3858 54.3737 37.6343 54.5273 36.875 54.5273C36.1157 54.5273 35.3642 54.3737 34.6658 54.0757C33.9674 53.7778 33.3365 53.3416 32.811 52.7935C32.2855 52.2454 31.8763 51.5967 31.6081 50.8863C31.3398 50.176 31.218 49.4187 31.25 48.66V46.76ZM56.75 50.22C56.75 49.5534 57.0141 48.914 57.4846 48.4417C57.955 47.9694 58.5934 47.7027 59.26 47.7H64.26V49.5C64.26 49.9138 64.0956 50.3106 63.8031 50.6031C63.5105 50.8957 63.1137 51.06 62.7 51.06H56.77V50.27L56.75 50.22ZM61.43 61.56L60.5 62.49L59.58 61.56H61.43ZM64.26 54.92C64.2863 55.4295 64.2087 55.9389 64.0318 56.4174C63.855 56.8958 63.5827 57.3333 63.2314 57.7032C62.8801 58.073 62.4573 58.3676 61.9886 58.5688C61.5199 58.7701 61.0151 58.8739 60.505 58.8739C59.9949 58.8739 59.4901 58.7701 59.0214 58.5688C58.5527 58.3676 58.1299 58.073 57.7786 57.7032C57.4273 57.3333 57.155 56.8958 56.9782 56.4174C56.8013 55.9389 56.7237 55.4295 56.75 54.92V53.92H62.7C63.2336 53.9224 63.7629 53.824 64.26 53.63V54.94V54.92ZM65.89 58.8C66.7069 57.6716 67.1446 56.3131 67.14 54.92V46.26C67.1413 46.0706 67.105 45.8827 67.0331 45.7074C66.9612 45.5321 66.8552 45.3728 66.7212 45.2388C66.5872 45.1049 66.4279 44.9988 66.2526 44.927C66.0773 44.8551 65.8895 44.8187 65.7 44.8201H59.28C57.8486 44.8227 56.4767 45.3925 55.4645 46.4046C54.4524 47.4167 53.8826 48.7887 53.88 50.22V54.92C53.879 56.3141 54.3202 57.6725 55.14 58.8C54.1552 58.9583 53.2028 59.2758 52.32 59.74C51.3131 58.2299 49.9835 56.9621 48.4271 56.0282C46.8707 55.0944 45.1263 54.5178 43.32 54.34C44.7191 52.7831 45.4921 50.7633 45.49 48.67V36.89C45.4835 36.7009 45.4399 36.5149 45.3615 36.3426C45.2831 36.1704 45.1715 36.0153 45.0331 35.8862C44.8947 35.7571 44.7323 35.6565 44.555 35.5903C44.3777 35.524 44.1891 35.4934 44 35.5H35.2C33.392 35.5027 31.6589 36.2221 30.3805 37.5005C29.102 38.7789 28.3826 40.5121 28.38 42.3201V48.71C28.3826 50.8024 29.155 52.8206 30.55 54.38C28.7437 54.5578 26.9993 55.1344 25.4429 56.0683C23.8865 57.0021 22.5569 58.2699 21.55 59.78C20.6679 59.3143 19.7152 58.9967 18.73 58.84C19.5498 57.7125 19.991 56.3541 19.99 54.9601V46.3C19.99 45.9181 19.8383 45.5519 19.5682 45.2818C19.2982 45.0118 18.9319 44.86 18.55 44.86H12C10.5678 44.86 9.19432 45.429 8.18162 46.4417C7.16893 47.4544 6.6 48.8279 6.6 50.26V54.9601C6.59904 56.3541 7.04018 57.7125 7.86 58.84C5.67301 59.2072 3.68567 60.3343 2.2479 62.0226C0.810134 63.711 0.014116 65.8525 0 68.07V72.34C0 72.722 0.151714 73.0882 0.421766 73.3583C0.691819 73.6283 1.05809 73.78 1.44 73.78H72.34C72.5295 73.7814 72.7173 73.745 72.8926 73.6731C73.0679 73.6012 73.2272 73.4952 73.3612 73.3612C73.4952 73.2272 73.6012 73.068 73.6731 72.8927C73.745 72.7174 73.7813 72.5295 73.78 72.34V68.07C73.7769 65.8436 72.9844 63.6904 71.5435 61.9931C70.1025 60.2958 68.1064 59.1644 65.91 58.8H65.89Z" fill="white"/>
<path d="M36.8898 28.96C40.2081 28.9611 43.426 27.8224 46.0052 25.7346C48.5843 23.6467 50.3681 20.7364 51.058 17.4906C51.7479 14.2448 51.3021 10.8606 49.7952 7.90421C48.2882 4.94784 45.8116 2.59873 42.7798 1.25002C42.6061 1.16594 42.4172 1.11763 42.2244 1.10798C42.0317 1.09833 41.8389 1.12753 41.6577 1.19384C41.4764 1.26015 41.3103 1.36221 41.1693 1.49398C41.0283 1.62575 40.9152 1.78452 40.8367 1.96087C40.7583 2.13721 40.7161 2.32752 40.7126 2.5205C40.7092 2.71348 40.7446 2.90518 40.8167 3.08421C40.8888 3.26323 40.9962 3.42595 41.1324 3.56266C41.2687 3.69937 41.431 3.8073 41.6098 3.88003C44.0326 4.96612 46.0096 6.8505 47.2105 9.21853C48.4114 11.5866 48.7636 14.2949 48.2082 16.8913C47.6529 19.4877 46.2237 21.8151 44.1592 23.4847C42.0947 25.1543 39.5199 26.0651 36.8648 26.0651C34.2096 26.0651 31.6349 25.1543 29.5704 23.4847C27.5059 21.8151 26.0767 19.4877 25.5213 16.8913C24.966 14.2949 25.3182 11.5866 26.5191 9.21853C27.72 6.8505 29.6969 4.96612 32.1198 3.88003C32.3047 3.81131 32.4735 3.70532 32.6158 3.56866C32.758 3.43199 32.8707 3.26756 32.9468 3.08555C33.0229 2.90354 33.0607 2.70783 33.0581 2.51058C33.0554 2.31333 33.0122 2.11874 32.9312 1.93887C32.8502 1.759 32.7331 1.5977 32.5871 1.46496C32.4412 1.33222 32.2695 1.23088 32.0828 1.16723C31.8961 1.10358 31.6983 1.07897 31.5017 1.09493C31.305 1.1109 31.1138 1.16708 30.9398 1.26002C27.9211 2.62124 25.4602 4.97599 23.9673 7.93174C22.4743 10.8875 22.0396 14.2657 22.7355 17.5031C23.4314 20.7405 25.2159 23.6416 27.7916 25.7228C30.3672 27.804 33.5784 28.9395 36.8898 28.94V28.96Z" fill="white"/>
<path d="M36.8902 2.88C37.0793 2.88 37.2665 2.84275 37.4413 2.77039C37.616 2.69802 37.7747 2.59195 37.9084 2.45824C38.0421 2.32452 38.1482 2.16577 38.2206 1.99106C38.2929 1.81635 38.3302 1.62911 38.3302 1.44C38.3302 1.2509 38.2929 1.06364 38.2206 0.888931C38.1482 0.714222 38.0421 0.555485 37.9084 0.421768C37.7747 0.288052 37.616 0.181986 37.4413 0.109619C37.2665 0.0372524 37.0793 -2.25428e-08 36.8902 0C36.7011 -2.25429e-08 36.5138 0.0372524 36.3391 0.109619C36.1644 0.181986 36.0057 0.288052 35.872 0.421768C35.7382 0.555485 35.6322 0.714222 35.5598 0.888931C35.4874 1.06364 35.4502 1.2509 35.4502 1.44C35.4502 1.62911 35.4874 1.81635 35.5598 1.99106C35.6322 2.16577 35.7382 2.32452 35.872 2.45824C36.0057 2.59195 36.1644 2.69802 36.3391 2.77039C36.5138 2.84275 36.7011 2.88 36.8902 2.88Z" fill="white"/>
<path d="M36.8899 65.14C36.6063 65.1432 36.33 65.2302 36.0956 65.3898C35.8612 65.5495 35.6791 65.7749 35.5723 66.0376C35.4655 66.3004 35.4387 66.5889 35.4952 66.8668C35.5517 67.1448 35.689 67.3998 35.8899 67.6C36.1596 67.8568 36.5176 68 36.8899 68C37.2623 68 37.6203 67.8568 37.8899 67.6C38.0909 67.3998 38.2282 67.1448 38.2847 66.8668C38.3412 66.5889 38.3144 66.3004 38.2076 66.0376C38.1008 65.7749 37.9187 65.5495 37.6843 65.3898C37.4499 65.2302 37.1736 65.1432 36.8899 65.14Z" fill="white"/>
<path d="M36.9702 9.07007V20.2901" stroke="white" stroke-width="2.5" stroke-miterlimit="10" stroke-linecap="round"/>
<path d="M42.5799 14.6799H31.3599" stroke="white" stroke-width="2.5" stroke-miterlimit="10" stroke-linecap="round"/>
</svg>
