<svg width="42" height="74" viewBox="0 0 42 74" fill="none" xmlns="http://www.w3.org/2000/svg">
<path d="M36.33 71.19H5.40002C4.61482 71.1743 3.86708 70.8513 3.31738 70.2904C2.76769 69.7295 2.45986 68.9753 2.46002 68.19V58.87H39.26V68.19C39.2601 68.9771 38.9509 69.7326 38.3991 70.2938C37.8472 70.855 37.097 71.1769 36.31 71.19H36.33ZM5.40002 2.45999H36.33C37.1067 2.47278 37.8481 2.78634 38.3983 3.33467C38.9485 3.883 39.2646 4.62337 39.28 5.39999V7.39999H2.46002V5.39999C2.46002 4.62026 2.76975 3.87246 3.32111 3.32111C3.87246 2.76975 4.62029 2.45999 5.40002 2.45999ZM2.46002 9.81H39.26V56.47H2.46002V9.81ZM36.33 0.0399933H5.40002C3.96786 0.0399933 2.59433 0.608916 1.58163 1.62161C0.568938 2.63431 0 4.00782 0 5.43999V68.24C-2.44821e-06 69.6731 0.568614 71.0476 1.58102 72.0619C2.59343 73.0762 3.96694 73.6473 5.40002 73.65H36.33C37.7631 73.6473 39.1366 73.0762 40.149 72.0619C41.1614 71.0476 41.73 69.6731 41.73 68.24V5.39999C41.73 3.96782 41.1611 2.59432 40.1484 1.58162C39.1357 0.568923 37.7622 0 36.33 0V0.0399933Z" fill="white"/>
<path d="M20.8699 67.51C20.3826 67.512 19.9056 67.3692 19.4995 67.0996C19.0934 66.8301 18.7766 66.446 18.5892 65.996C18.4017 65.5461 18.3522 65.0507 18.4468 64.5726C18.5414 64.0944 18.7759 63.6552 19.1205 63.3106C19.4651 62.9659 19.9044 62.7314 20.3825 62.6368C20.8606 62.5422 21.3561 62.5918 21.806 62.7792C22.2559 62.9667 22.64 63.2835 22.9096 63.6896C23.1791 64.0956 23.3219 64.5726 23.32 65.06C23.3173 65.709 23.0584 66.3306 22.5995 66.7895C22.1406 67.2484 21.5189 67.5074 20.8699 67.51ZM20.8699 60.15C19.8988 60.15 18.9495 60.438 18.1421 60.9775C17.3347 61.517 16.7053 62.2839 16.3337 63.181C15.9621 64.0782 15.8649 65.0655 16.0543 66.0179C16.2438 66.9704 16.7114 67.8452 17.3981 68.5319C18.0847 69.2186 18.9596 69.6862 19.9121 69.8757C20.8645 70.0651 21.8518 69.9679 22.7489 69.5963C23.6461 69.2246 24.4129 68.5953 24.9525 67.7879C25.492 66.9804 25.78 66.0311 25.78 65.06C25.7773 63.7586 25.2592 62.5113 24.3389 61.591C23.4187 60.6708 22.1713 60.1527 20.8699 60.15Z" fill="white"/>
<path d="M15.9498 6.13005H20.8698C21.1755 6.10239 21.46 5.96137 21.6671 5.7347C21.8742 5.50802 21.989 5.2121 21.989 4.90506C21.989 4.59802 21.8742 4.30208 21.6671 4.07541C21.46 3.84873 21.1755 3.70771 20.8698 3.68005H15.9498C15.644 3.70771 15.3596 3.84873 15.1525 4.07541C14.9454 4.30208 14.8306 4.59802 14.8306 4.90506C14.8306 5.2121 14.9454 5.50802 15.1525 5.7347C15.3596 5.96137 15.644 6.10239 15.9498 6.13005Z" fill="white"/>
<path d="M24.5498 6.13004H25.7798C25.9499 6.14544 26.1214 6.12521 26.2834 6.07064C26.4453 6.01608 26.5941 5.92837 26.7202 5.81312C26.8464 5.69787 26.9471 5.5576 27.016 5.40125C27.085 5.24491 27.1205 5.07592 27.1205 4.90505C27.1205 4.73419 27.085 4.56518 27.016 4.40884C26.9471 4.25249 26.8464 4.11222 26.7202 3.99697C26.5941 3.88172 26.4453 3.79403 26.2834 3.73947C26.1214 3.6849 25.9499 3.66466 25.7798 3.68005H24.5498C24.3796 3.66466 24.2081 3.6849 24.0462 3.73947C23.8843 3.79403 23.7355 3.88172 23.6093 3.99697C23.4832 4.11222 23.3824 4.25249 23.3135 4.40884C23.2446 4.56518 23.209 4.73419 23.209 4.90505C23.209 5.07592 23.2446 5.24491 23.3135 5.40125C23.3824 5.5576 23.4832 5.69787 23.6093 5.81312C23.7355 5.92837 23.8843 6.01608 24.0462 6.07064C24.2081 6.12521 24.3796 6.14544 24.5498 6.13004Z" fill="white"/>
<path d="M35.5997 52.78H13.4997V47.87H35.5997V52.78ZM6.13968 52.78V47.87H11.0397V52.78H6.13968ZM13.4997 45.42H3.67969V55.24H38.0497V45.42H13.4997Z" fill="white"/>
<path d="M21.06 39.0101C27.0412 39.0101 31.89 34.1613 31.89 28.1801C31.89 22.1989 27.0412 17.3501 21.06 17.3501C15.0787 17.3501 10.23 22.1989 10.23 28.1801C10.23 34.1613 15.0787 39.0101 21.06 39.0101Z" stroke="white" stroke-width="2" stroke-miterlimit="10"/>
<path d="M18.96 33.46V22.9L26.43 28.18L18.96 33.46Z" stroke="white" stroke-width="2" stroke-linejoin="round"/>
</svg>
