<svg width="91" height="73" viewBox="0 0 91 73" fill="none" xmlns="http://www.w3.org/2000/svg">
<path fill-rule="evenodd" clip-rule="evenodd" d="M40.9117 72.9999C40.9129 72.9999 40.9142 72.9999 40.9154 72.9999C51.745 72.978 62.1241 68.7139 69.7779 61.1423C76.992 54.0056 81.2303 44.4791 81.7026 34.4462C83.9055 33.9998 85.948 32.928 87.5666 31.3386C89.7387 29.2055 90.9724 26.3122 91 23.2862V16.8581C91 15.4922 90.4546 14.1814 89.4822 13.2107C88.5616 12.2918 87.3287 11.7479 86.0272 11.681V5.20466C86.0272 4.65472 85.8062 4.1273 85.4127 3.73843C85.0192 3.34956 84.4855 3.13109 83.929 3.13109C83.3725 3.13109 82.8388 3.34956 82.4453 3.73843C82.0518 4.1273 81.8308 4.65472 81.8308 5.20466V11.6742H76.9839V5.20466C76.9839 4.65472 76.7628 4.1273 76.3693 3.73843C75.9758 3.34956 75.4421 3.13109 74.8857 3.13109C74.3292 3.13109 73.7955 3.34956 73.402 3.73843C73.0085 4.1273 72.7874 4.65472 72.7874 5.20466V11.6799C71.4782 11.742 70.237 12.2868 69.3114 13.2107C68.339 14.1814 67.7935 15.4922 67.7936 16.8581V23.2758C67.8185 26.3037 69.0509 29.1996 71.2233 31.3349C72.9198 33.0023 75.0825 34.1008 77.4079 34.5059C76.5322 43.1082 72.5723 51.1433 66.2095 57.1376C65.4011 57.8992 64.5613 58.6209 63.6931 59.3016C65.5877 55.7075 66.6048 51.6843 66.6082 47.5572C66.6082 42.523 65.0969 37.6018 62.2656 33.4167C59.4344 29.2315 55.4104 25.9705 50.7031 24.0464C45.9957 22.1222 40.8165 21.6214 35.821 22.6073C30.8255 23.5932 26.2382 26.0216 22.6398 29.585C19.0413 33.1484 16.5935 37.6867 15.606 42.6255C14.6186 47.5643 15.1359 52.6816 17.0925 57.3297C17.3697 57.9881 17.6739 58.6328 18.0041 59.2626C17.1536 58.5934 16.3303 57.8847 15.5373 57.1376C8.70843 50.7042 4.64738 41.9199 4.19645 32.6068V2.07357C4.19645 1.52362 3.97539 0.996203 3.58189 0.607334C3.1884 0.218465 2.65471 0 2.09822 0C1.54174 0 1.00805 0.218465 0.614556 0.607334C0.221062 0.996203 0 1.52362 0 2.07357V32.5654C0 43.2893 4.31072 53.574 11.9838 61.1569C19.5912 68.6749 29.8858 72.9267 40.6365 72.999C40.6932 72.9995 40.75 72.9998 40.8067 72.9999L40.9079 72.9999L40.9117 72.9999ZM49.6656 66.1044C46.811 66.8002 43.8603 67.1599 40.8734 67.1599C37.8752 67.1599 34.9135 66.7974 32.0488 66.0964C31.3375 65.5998 30.6674 65.0419 30.0469 64.427C27.9117 62.311 26.46 59.6164 25.8757 56.6845C25.2914 53.7525 25.6008 50.7152 26.7647 47.9571C27.9285 45.1991 29.8945 42.8445 32.4136 41.1916C34.9327 39.5386 37.8916 38.6618 40.9153 38.672C44.9548 38.6884 48.8234 40.2844 51.6758 43.111C54.5282 45.9377 56.1324 49.7652 56.138 53.7572C56.14 56.7455 55.2446 59.6671 53.5651 62.1521C52.5168 63.7031 51.1924 65.0404 49.6656 66.1044ZM83.4628 15.8213C83.6146 15.8555 83.7709 15.8732 83.929 15.8732C84.0871 15.8732 84.2434 15.8555 84.3952 15.8213H85.7964C86.0654 15.8347 86.319 15.9497 86.5045 16.1427C86.6901 16.3358 86.7934 16.5919 86.793 16.8581V23.2758C86.7209 25.1681 85.9096 26.9591 84.5294 28.2727C83.1492 29.5862 81.3077 30.3201 79.3915 30.3201C77.4754 30.3201 75.6338 29.5862 74.2537 28.2727C72.8735 26.9591 72.0621 25.1681 71.99 23.2758V16.8581C71.9897 16.5919 72.093 16.3358 72.2785 16.1427C72.4641 15.9497 72.7176 15.8347 72.9867 15.8213H74.4195C74.5712 15.8555 74.7275 15.8732 74.8857 15.8732C75.0438 15.8732 75.2001 15.8555 75.3519 15.8213H83.4628ZM60.3344 53.7572C60.3324 54.9892 60.2111 56.2089 59.9767 57.4012C61.5728 54.3714 62.4134 50.9957 62.4117 47.5572C62.4062 41.9209 60.141 36.5164 56.112 32.527C52.0831 28.5377 46.6187 26.2885 40.9154 26.2721C36.6508 26.2618 32.479 27.5023 28.9282 29.8365C25.3774 32.1707 22.6073 35.4936 20.9686 39.3846C19.3298 43.2755 18.8962 47.5595 19.7226 51.6941C20.1209 53.6867 20.8031 55.6015 21.7404 57.3845C21.2711 54.9681 21.2727 52.4729 21.7591 50.035C22.5045 46.2989 24.3548 42.8653 27.0759 40.169C29.7969 37.4727 33.2663 35.6348 37.0448 34.8881C40.8234 34.1414 44.7411 34.5195 48.3021 35.9744C51.8632 37.4293 54.9073 39.8956 57.0492 43.0612C59.1911 46.2267 60.3344 49.9492 60.3344 53.7572Z" fill="white"/>
</svg>
