<svg width="49" height="78" viewBox="0 0 49 78" fill="none" xmlns="http://www.w3.org/2000/svg">
<path d="M28.7 40.6799C30.4452 38.5245 31.661 35.9901 32.25 33.2799H38.73C36.4687 36.9375 32.8888 39.5866 28.73 40.6799H28.7ZM10.33 33.2799H16.82C17.4047 35.9915 18.621 38.5269 20.37 40.6799C16.2108 39.5875 12.6306 36.9382 10.37 33.2799H10.33ZM20.33 8.37994C18.581 10.533 17.3647 13.0683 16.78 15.7799H10.33C12.5875 12.1189 16.169 9.46858 20.33 8.37994ZM38.69 15.7799H32.25C31.661 13.0698 30.4452 10.5354 28.7 8.37994C32.8606 9.46952 36.4418 12.1196 38.7 15.7799H38.69ZM33.23 23.7799C33.1991 21.6446 32.9782 19.5162 32.57 17.42H39.57C40.5183 19.4129 41.0589 21.5752 41.16 23.7799H33.23ZM31 17.3699C31.4301 19.4638 31.6678 21.5927 31.71 23.7299H17.39C17.4322 21.5927 17.6699 19.4638 18.1 17.3699H31ZM24.57 7.82996C27.09 7.82996 29.34 11.0499 30.57 15.7799H18.48C19.76 11.0499 22.02 7.82996 24.53 7.82996H24.57ZM9.51002 17.3699H16.51C16.1031 19.4666 15.879 21.5946 15.84 23.7299H7.87002C7.97457 21.5246 8.51854 19.3623 9.47002 17.3699H9.51002ZM7.91002 25.3199H15.83C15.8688 27.4587 16.093 29.59 16.5 31.6899H9.50002C8.54852 29.6941 8.00458 27.5285 7.90002 25.3199H7.91002ZM18.1 31.6899C17.6694 29.5927 17.4317 27.4605 17.39 25.3199H31.67C31.6415 27.4593 31.4172 29.5915 31 31.6899H18.1ZM24.53 41.1899C22.02 41.1899 19.76 37.9599 18.48 33.1899H30.58C29.3 37.9099 27.05 41.1899 24.58 41.1899H24.53ZM39.6 31.6899H32.6C33.0083 29.5904 33.2292 27.4586 33.26 25.3199H41.18C41.0789 27.5279 40.5383 29.6935 39.59 31.6899H39.6ZM40.82 16.1899C39.289 13.1875 36.9578 10.6667 34.0838 8.90622C31.2099 7.14571 27.9053 6.21399 24.535 6.21399C21.1647 6.21399 17.8601 7.14571 14.9862 8.90622C12.1123 10.6667 9.78103 13.1875 8.25002 16.1899V16.2599C6.9551 18.8137 6.28027 21.6367 6.28027 24.4999C6.28027 27.3632 6.9551 30.1862 8.25002 32.7399V32.8099C9.78103 35.8124 12.1123 38.3331 14.9862 40.0937C17.8601 41.8542 21.1647 42.7859 24.535 42.7859C27.9053 42.7859 31.2099 41.8542 34.0838 40.0937C36.9578 38.3331 39.289 35.8124 40.82 32.8099C40.8218 32.7833 40.8218 32.7566 40.82 32.7299C42.1087 30.1761 42.78 27.3555 42.78 24.4949C42.78 21.6344 42.1087 18.8138 40.82 16.2599C40.8167 16.2367 40.8167 16.2132 40.82 16.1899Z" fill="white"/>
<path d="M47.06 24.53C47.06 18.5547 44.6863 12.8241 40.4611 8.59888C36.2359 4.37368 30.5053 2 24.53 2C18.5547 2 12.8241 4.37368 8.59888 8.59888C4.37369 12.8241 2 18.5547 2 24.53C2 36.97 18.12 71.59 24.53 71.59C31.18 71.59 47.06 36.97 47.06 24.53Z" stroke="white" stroke-width="3" stroke-miterlimit="10"/>
<path d="M28.0001 69.96C37.8001 70.15 45.2701 71.2 45.2701 72.46C45.2701 73.72 36.0001 75.99 24.6801 75.99C13.3601 75.99 4.1001 73.86 4.1001 72.46C4.1001 71.22 11.3301 70.19 20.8901 69.97" stroke="white" stroke-width="3" stroke-miterlimit="10" stroke-linecap="round"/>
</svg>
