<svg width="70" height="65" viewBox="0 0 70 65" fill="none" xmlns="http://www.w3.org/2000/svg">
<path d="M26.6375 53.0668H5.87754C5.57254 53.0668 5.28003 53.1879 5.06437 53.4036C4.8487 53.6193 4.72754 53.9118 4.72754 54.2168C4.72754 54.5218 4.8487 54.8143 5.06437 55.0299C5.28003 55.2456 5.57254 55.3668 5.87754 55.3668H26.6375C26.9425 55.3668 27.235 55.2456 27.4507 55.0299C27.6664 54.8143 27.7875 54.5218 27.7875 54.2168C27.7875 53.9118 27.6664 53.6193 27.4507 53.4036C27.235 53.1879 26.9425 53.0668 26.6375 53.0668Z" fill="white"/>
<path d="M3.56755 41.5267H12.7976C13.0853 41.4999 13.3527 41.3666 13.5474 41.153C13.7421 40.9393 13.85 40.6607 13.85 40.3717C13.85 40.0827 13.7421 39.804 13.5474 39.5904C13.3527 39.3768 13.0853 39.2435 12.7976 39.2167H3.56755C3.27977 39.2435 3.01236 39.3768 2.8177 39.5904C2.62303 39.804 2.51514 40.0827 2.51514 40.3717C2.51514 40.6607 2.62303 40.9393 2.8177 41.153C3.01236 41.3666 3.27977 41.4999 3.56755 41.5267Z" fill="white"/>
<path d="M20.8676 47.2967C20.8689 47.1432 20.8395 46.9909 20.7811 46.8489C20.7227 46.7069 20.6364 46.578 20.5273 46.4699C20.4183 46.3618 20.2887 46.2766 20.1462 46.2194C20.0036 46.1621 19.8511 46.134 19.6976 46.1367H1.26759C1.10688 46.1217 0.944815 46.1405 0.791759 46.1917C0.638703 46.243 0.498025 46.3256 0.378719 46.4343C0.259414 46.543 0.164108 46.6754 0.0988955 46.823C0.0336832 46.9707 0 47.1303 0 47.2917C0 47.4531 0.0336832 47.6127 0.0988955 47.7604C0.164108 47.908 0.259414 48.0404 0.378719 48.1491C0.498025 48.2579 0.638703 48.3405 0.791759 48.3917C0.944815 48.4429 1.10688 48.4617 1.26759 48.4467H19.6976C20.0026 48.4467 20.2951 48.3256 20.5108 48.1099C20.7264 47.8942 20.8476 47.6017 20.8476 47.2967H20.8676Z" fill="white"/>
<path d="M67.0078 61.1367C67.0105 61.2885 66.9826 61.4392 66.9258 61.58C66.869 61.7207 66.7844 61.8486 66.677 61.9559C66.5697 62.0633 66.4418 62.1479 66.3011 62.2047C66.1603 62.2615 66.0096 62.2894 65.8578 62.2867H46.8578C46.0784 62.2716 45.3287 61.9852 44.7378 61.4767L8.69782 25.3867C8.40835 25.0927 8.23877 24.7014 8.22213 24.2891C8.20549 23.8768 8.34299 23.4731 8.60782 23.1567L9.36782 22.3967L46.5878 59.6467C46.8034 59.861 47.0939 59.9829 47.3978 59.9867H67.0078V61.1367ZM58.9378 48.4467H52.0178C51.8571 48.4317 51.695 48.4505 51.542 48.5017C51.3889 48.553 51.2483 48.6356 51.129 48.7443C51.0096 48.853 50.9143 48.9854 50.8491 49.133C50.7839 49.2807 50.7502 49.4403 50.7502 49.6017C50.7502 49.7631 50.7839 49.9227 50.8491 50.0704C50.9143 50.218 51.0096 50.3504 51.129 50.4592C51.2483 50.5679 51.3889 50.6505 51.542 50.7017C51.695 50.753 51.8571 50.7717 52.0178 50.7567H58.9378C60.8933 50.7079 62.7966 51.39 64.276 52.6697C65.7554 53.9493 66.7045 55.7346 66.9378 57.6767H47.8778L10.9678 20.7667L28.3778 3.35672C29.3778 6.35672 31.5378 12.2967 35.0478 15.8167C38.9878 19.7567 45.8278 20.5567 48.5578 20.7267V30.0067H45.8278C45.6273 29.6533 45.3364 29.3596 44.985 29.1558C44.6335 28.9519 44.2341 28.8453 43.8278 28.8467C43.2152 28.8467 42.6276 29.0901 42.1944 29.5233C41.7612 29.9565 41.5178 30.5441 41.5178 31.1567C41.5178 31.7694 41.7612 32.3569 42.1944 32.7901C42.6276 33.2233 43.2152 33.4667 43.8278 33.4667C44.2341 33.4682 44.6335 33.3615 44.985 33.1577C45.3364 32.9538 45.6273 32.6601 45.8278 32.3067H48.5578V39.2267H45.8278C45.5736 38.7863 45.1811 38.4422 44.7113 38.2476C44.2415 38.053 43.7206 38.0188 43.2294 38.1504C42.7382 38.282 42.3042 38.5721 41.9947 38.9755C41.6851 39.3789 41.5173 39.8732 41.5173 40.3817C41.5173 40.8902 41.6851 41.3845 41.9947 41.788C42.3042 42.1914 42.7382 42.4814 43.2294 42.613C43.7206 42.7446 44.2415 42.7105 44.7113 42.5159C45.1811 42.3213 45.5736 41.9771 45.8278 41.5367H48.5578V42.6867C48.5574 42.9925 48.6757 43.2865 48.8878 43.5067L51.1978 45.8067C51.414 46.0229 51.7071 46.1443 52.0128 46.1443C52.3185 46.1443 52.6117 46.0229 52.8278 45.8067C53.044 45.5906 53.1654 45.2974 53.1654 44.9917C53.1654 44.686 53.044 44.3929 52.8278 44.1767L50.8278 42.1767V19.6167C50.8305 19.3134 50.7133 19.0214 50.5016 18.8041C50.29 18.5868 50.0011 18.462 49.6978 18.4567C49.6078 18.4567 40.8978 18.4567 36.6978 14.1867C32.4978 9.91672 30.0878 1.00672 30.0678 0.876716C30.0191 0.677415 29.9179 0.494789 29.7747 0.347778C29.6316 0.200767 29.4518 0.094726 29.2538 0.0406537C29.0559 -0.0134187 28.8471 -0.0135532 28.6491 0.040264C28.4511 0.0940811 28.2711 0.19989 28.1278 0.346716L8.52782 19.9467L6.94782 21.5267C6.26238 22.2799 5.89007 23.2663 5.90679 24.2846C5.92351 25.3028 6.32802 26.2764 7.03782 27.0067L43.1278 63.1067C44.1466 64.0563 45.4851 64.5881 46.8778 64.5967H65.8778C66.3337 64.6021 66.786 64.5162 67.2082 64.3443C67.6304 64.1723 68.014 63.9176 68.3364 63.5953C68.6587 63.2729 68.9134 62.8893 69.0854 62.4671C69.2574 62.0449 69.3432 61.5926 69.3378 61.1367V58.8267C69.3526 57.4578 69.0935 56.0998 68.5759 54.8324C68.0582 53.5651 67.2924 52.414 66.3234 51.4469C65.3545 50.4798 64.2019 49.7162 62.9336 49.201C61.6653 48.6858 60.3067 48.4293 58.9378 48.4467Z" fill="white"/>
<path d="M37.0177 28.8367V42.6767C37.0027 42.8374 37.0215 42.9995 37.0727 43.1525C37.1239 43.3056 37.2065 43.4463 37.3153 43.5656C37.424 43.6849 37.5564 43.7802 37.704 43.8454C37.8517 43.9106 38.0113 43.9443 38.1727 43.9443C38.3341 43.9443 38.4937 43.9106 38.6414 43.8454C38.789 43.7802 38.9214 43.6849 39.0301 43.5656C39.1388 43.4463 39.2215 43.3056 39.2727 43.1525C39.3239 42.9995 39.3427 42.8374 39.3277 42.6767V28.8367C39.3009 28.5489 39.1676 28.2815 38.954 28.0869C38.7403 27.8922 38.4617 27.7843 38.1727 27.7843C37.8837 27.7843 37.6051 27.8922 37.3914 28.0869C37.1778 28.2815 37.0445 28.5489 37.0177 28.8367Z" fill="white"/>
<path d="M45.0779 25.1368C45.3635 25.1267 45.6354 25.0116 45.8414 24.8134C46.0474 24.6153 46.173 24.348 46.194 24.063C46.2151 23.7779 46.1302 23.4951 45.9556 23.2688C45.781 23.0425 45.5289 22.8887 45.2479 22.8368C41.4682 22.2881 37.8847 20.807 34.8207 18.5269C31.7568 16.2468 29.3088 13.2396 27.6979 9.77675C27.5652 9.50093 27.3285 9.28908 27.0397 9.18781C26.7509 9.08654 26.4337 9.10414 26.1579 9.23675C25.882 9.36936 25.6702 9.60611 25.5689 9.89492C25.4676 10.1837 25.4852 10.5009 25.6179 10.7768C27.3915 14.5823 30.0844 17.8865 33.4537 20.3917C36.823 22.8968 40.7628 24.5241 44.9179 25.1268L45.0779 25.1368Z" fill="white"/>
</svg>
