<svg width="92" height="79" viewBox="0 0 92 79" fill="none" xmlns="http://www.w3.org/2000/svg">
<path fill-rule="evenodd" clip-rule="evenodd" d="M55.8166 41.3449C53.0504 42.4895 50.0853 43.0766 47.0915 43.0726L47.1115 43.1526C43.9662 43.1554 40.8542 42.5071 37.9717 41.2485C35.0891 39.9898 32.4982 38.1481 30.3622 35.8392C28.2262 33.5304 26.5912 30.8044 25.5602 27.8327C24.5292 24.8611 24.1245 21.7083 24.3716 18.5726C24.4087 18.0992 24.6323 17.6599 24.9933 17.3514C25.3543 17.0429 25.8231 16.8905 26.2965 16.9276C26.77 16.9647 27.2092 17.1884 27.5177 17.5494C27.8262 17.9104 27.9787 18.3792 27.9416 18.8526C27.6334 22.7679 28.5321 26.6837 30.5167 30.0728C32.5013 33.462 35.4765 36.1618 39.0419 37.8089C42.6073 39.4559 46.5917 39.9712 50.4588 39.2853C54.3259 38.5995 57.8901 36.7454 60.6715 33.9726C57.6032 34.6545 54.4271 34.6943 51.3426 34.0895C48.2582 33.4847 45.3322 32.2485 42.7486 30.4584C40.1649 28.6684 37.9795 26.3632 36.3296 23.6879C34.6798 21.0126 33.6011 18.0249 33.1615 14.9126C32.7874 12.2049 32.8957 9.45245 33.4815 6.78259C33.1615 7.09259 32.8415 7.43259 32.5415 7.78259C32.2312 8.14196 31.7909 8.36334 31.3174 8.39803C30.8438 8.43273 30.3759 8.27789 30.0165 7.96759C29.6571 7.65729 29.4358 7.21693 29.4011 6.7434C29.3664 6.26987 29.5212 5.80196 29.8315 5.44259C31.669 3.31356 33.8826 1.54072 36.3615 0.212589C36.7009 0.0305647 37.0899 -0.0371647 37.4708 0.0194566C37.8517 0.076078 38.2043 0.254031 38.476 0.526893C38.7477 0.799756 38.9242 1.15298 38.9792 1.53412C39.0343 1.91525 38.965 2.30398 38.7815 2.64259C36.8527 6.27801 36.141 10.4363 36.7511 14.5063C37.3612 18.5763 39.2609 22.3432 42.1709 25.2532C45.081 28.1633 48.8479 30.063 52.9178 30.6731C56.9878 31.2832 61.1461 30.5715 64.7815 28.6426C65.1162 28.4689 65.4973 28.4054 65.8702 28.4611C66.2431 28.5168 66.5889 28.6888 66.8583 28.9527C67.1277 29.2165 67.3069 29.5587 67.3703 29.9304C67.4338 30.3021 67.3782 30.6843 67.2115 31.0226C66.1481 33.0017 64.8005 34.8142 63.2115 36.4026C61.0959 38.5207 58.5829 40.2003 55.8166 41.3449ZM40.479 52.0151C41.4411 52.9772 41.9816 54.282 41.9816 55.6426C41.9816 57.0031 41.4411 58.308 40.479 59.27C39.517 60.2321 38.2122 60.7726 36.8516 60.7726H8.4916C6.38586 60.7779 4.35359 59.9987 2.79123 58.5869C1.22886 57.1751 0.248468 55.232 0.0411641 53.1364C-0.16614 51.0409 0.414555 48.9433 1.67001 47.2528C2.92546 45.5622 4.76559 44.3999 6.83157 43.9926C7.22331 41.6798 8.42276 39.581 10.2165 38.0694C12.0103 36.5579 14.2821 35.7316 16.6278 35.7376C18.9735 35.7436 21.241 36.5815 23.027 38.1022C24.813 39.6229 26.0017 41.7278 26.3816 44.0426C27.83 44.4069 29.1181 45.2379 30.0471 46.4073C30.9761 47.5767 31.4942 49.0194 31.5216 50.5126H36.8516C38.2122 50.5126 39.517 51.0531 40.479 52.0151ZM4.42215 49.5727C3.8806 50.3801 3.59147 51.3304 3.59158 52.3026L3.6116 52.3226C3.61951 53.6179 4.13894 54.8575 5.05673 55.7716C5.97452 56.6856 7.21632 57.2 8.51162 57.2026H36.8916C37.3027 57.2026 37.697 57.0393 37.9876 56.7486C38.2783 56.4579 38.4416 56.0637 38.4416 55.6526C38.4416 55.2415 38.2783 54.8472 37.9876 54.5566C37.697 54.2659 37.3027 54.1026 36.8916 54.1026H29.4916C29.2058 54.1026 28.9242 54.0342 28.6703 53.9031C28.4164 53.7719 28.1975 53.5819 28.0321 53.3489C27.8666 53.1159 27.7594 52.8467 27.7193 52.5638C27.6792 52.2808 27.7074 51.9924 27.8016 51.7226C27.9211 51.3751 27.982 51.0101 27.9816 50.6426C27.979 49.792 27.6399 48.9771 27.0385 48.3757C26.4371 47.7743 25.6221 47.4352 24.7716 47.4326C24.2968 47.4326 23.8416 47.244 23.5059 46.9083C23.1702 46.5726 22.9816 46.1173 22.9816 45.6426C22.9867 44.0962 22.4256 42.6015 21.4042 41.4406C20.3828 40.2796 18.9718 39.5326 17.4374 39.3407C15.903 39.1487 14.3515 39.525 13.0755 40.3986C11.7996 41.2722 10.8876 42.5826 10.5116 44.0826C12.0258 44.4521 13.4095 45.2304 14.5116 46.3326C14.7589 46.5848 14.9264 46.9041 14.9934 47.2509C15.0605 47.5976 15.0241 47.9564 14.8887 48.2826C14.7533 48.6088 14.525 48.888 14.2321 49.0854C13.9392 49.2827 13.5948 49.3896 13.2416 49.3926C13.0069 49.3927 12.7744 49.3459 12.558 49.2549C12.3416 49.1639 12.1457 49.0305 11.9816 48.8626C11.2992 48.1701 10.4262 47.6963 9.47366 47.5015C8.52117 47.3066 7.53226 47.3995 6.63272 47.7683C5.73317 48.1371 4.96369 48.7652 4.42215 49.5727ZM81.5379 55.1664C81.0729 51.8247 79.4167 48.763 76.8735 46.545C74.3237 44.3212 71.0549 43.096 67.6716 43.096C64.2883 43.096 61.0194 44.3212 58.4696 46.545C55.9198 48.7688 54.2616 51.8407 53.8016 55.1926C51.6662 55.5931 49.7375 56.7263 48.3483 58.3967C46.959 60.0671 46.1963 62.17 46.1916 64.3426V65.0626H43.5416C41.7381 65.0626 40.0085 65.779 38.7332 67.0543C37.458 68.3295 36.7416 70.0591 36.7416 71.8626C36.7416 73.6661 37.458 75.3957 38.7332 76.6709C40.0085 77.9462 41.7381 78.6626 43.5416 78.6626H79.8216C82.809 78.6653 85.6864 77.5358 87.8742 75.5015C90.062 73.4672 91.3976 70.6794 91.6119 67.6997C91.8262 64.72 90.9033 61.7698 89.0291 59.4434C87.1604 57.1239 84.4846 55.5965 81.5379 55.1664ZM43.5716 75.1126H79.8516L79.8116 75.1426C81.259 75.1447 82.6814 74.7654 83.9357 74.0431C85.1899 73.3207 86.2318 72.2807 86.9564 71.0278C87.681 69.7748 88.0628 68.3531 88.0634 66.9056C88.0639 65.4582 87.6832 64.0362 86.9595 62.7827C86.2358 61.5292 85.1947 60.4884 83.941 59.7652C82.6872 59.0419 81.2651 58.6616 79.8177 58.6626C78.3703 58.6636 76.9487 59.0458 75.6959 59.7709C74.4432 60.4959 73.4035 61.5381 72.6816 62.7926C72.5259 63.0663 72.3004 63.2938 72.0281 63.4519C71.7558 63.61 71.4465 63.6931 71.1316 63.6926C70.816 63.6911 70.506 63.6084 70.2316 63.4526C70.0278 63.3346 69.8493 63.1776 69.7063 62.9905C69.5633 62.8035 69.4586 62.59 69.3982 62.3625C69.3378 62.1349 69.323 61.8976 69.3544 61.6643C69.3859 61.4309 69.463 61.2061 69.5815 61.0026C70.4577 59.4923 71.6571 58.1944 73.0938 57.2021C74.5305 56.2097 76.1688 55.5474 77.8915 55.2626C77.5018 52.8219 76.2547 50.6001 74.3743 48.9961C72.4938 47.3921 70.1032 46.511 67.6316 46.511C65.16 46.511 62.7693 47.3921 60.8889 48.9961C59.0084 50.6001 57.7613 52.8219 57.3716 55.2626C58.3333 55.4701 59.2574 55.8242 60.1116 56.3126C60.5228 56.551 60.823 56.9425 60.9467 57.4015C61.0703 57.8605 61.0073 58.3498 60.7715 58.7626C60.5333 59.1714 60.143 59.4693 59.6857 59.5911C59.2285 59.7129 58.7416 59.6487 58.3315 59.4126C57.4687 58.9202 56.4949 58.6552 55.5016 58.6426C53.9819 58.6426 52.5244 59.2463 51.4498 60.3209C50.3752 61.3954 49.7715 62.8529 49.7715 64.3726C49.7712 65.0226 49.8793 65.6682 50.0916 66.2826C50.1875 66.5522 50.2173 66.8408 50.1787 67.1243C50.1401 67.4078 50.034 67.6779 49.8695 67.912C49.705 68.146 49.4868 68.3373 49.2331 68.4696C48.9794 68.602 48.6977 68.6716 48.4116 68.6726H43.5716C42.7176 68.6726 41.8985 69.0118 41.2947 69.6157C40.6908 70.2196 40.3516 71.0386 40.3516 71.8926C40.3516 72.7466 40.6908 73.5656 41.2947 74.1695C41.8985 74.7733 42.7176 75.1126 43.5716 75.1126ZM79.8516 69.7426H72.5116C72.0369 69.7426 71.5815 69.9312 71.2458 70.2669C70.9102 70.6026 70.7216 71.0579 70.7216 71.5326C70.7216 72.0073 70.9102 72.4626 71.2458 72.7983C71.5815 73.134 72.0369 73.3226 72.5116 73.3226H79.8516C80.3263 73.3226 80.7816 73.134 81.1173 72.7983C81.453 72.4626 81.6415 72.0073 81.6415 71.5326C81.6415 71.0579 81.453 70.6026 81.1173 70.2669C80.7816 69.9312 80.3263 69.7426 79.8516 69.7426ZM66.0959 70.2669C66.4316 69.9312 66.8869 69.7426 67.3616 69.7426C67.8364 69.7426 68.2916 69.9312 68.6273 70.2669C68.963 70.6026 69.1516 71.0579 69.1516 71.5326C69.1516 72.0073 68.963 72.4626 68.6273 72.7983C68.2916 73.134 67.8364 73.3226 67.3616 73.3226C66.8869 73.3226 66.4316 73.134 66.0959 72.7983C65.7602 72.4626 65.5717 72.0073 65.5717 71.5326C65.5717 71.0579 65.7602 70.6026 66.0959 70.2669ZM15.2615 50.7926C14.7883 50.7736 14.3269 50.9429 13.9783 51.2634C13.6297 51.5839 13.4222 52.0295 13.4015 52.5026C13.3825 52.9758 13.5518 53.4372 13.8723 53.7858C14.1928 54.1344 14.6384 54.3418 15.1115 54.3626H15.1915C15.6439 54.3614 16.0792 54.19 16.4109 53.8824C16.7426 53.5748 16.9463 53.1536 16.9815 52.7026C16.9977 52.4634 16.9657 52.2234 16.8874 51.9968C16.8091 51.7702 16.6862 51.5617 16.5257 51.3835C16.3653 51.2054 16.1708 51.0613 15.9536 50.9598C15.7364 50.8583 15.5011 50.8014 15.2615 50.7926ZM26.6117 15.2226C26.7959 15.2817 26.9882 15.3121 27.1817 15.3126C27.5572 15.3133 27.9234 15.1958 28.2285 14.9769C28.5336 14.7579 28.7621 14.4486 28.8817 14.0926V14.0226C29.014 13.5804 28.9704 13.1042 28.76 12.6933C28.5495 12.2825 28.1885 11.9689 27.7523 11.8179C27.3162 11.6669 26.8385 11.6902 26.4191 11.883C25.9997 12.0758 25.671 12.4232 25.5017 12.8526V12.9526C25.3542 13.401 25.3876 13.8893 25.595 14.3133C25.8024 14.7374 26.1672 15.0637 26.6117 15.2226ZM54.7272 15.4583C54.3915 15.794 53.9362 15.9826 53.4615 15.9826C53.2264 15.9826 52.9937 15.9363 52.7765 15.8463C52.5593 15.7564 52.362 15.6245 52.1958 15.4583C52.0296 15.2921 51.8977 15.0948 51.8077 14.8776C51.7178 14.6604 51.6715 14.4277 51.6715 14.1926C51.6715 13.7178 51.8601 13.2626 52.1958 12.9269C52.5315 12.5912 52.9867 12.4026 53.4615 12.4026C53.9362 12.4026 54.3915 12.5912 54.7272 12.9269C55.0629 13.2626 55.2515 13.7178 55.2515 14.1926C55.2515 14.6673 55.0629 15.1226 54.7272 15.4583ZM80.0916 18.1326C80.5664 18.1326 81.0217 17.944 81.3574 17.6083C81.6931 17.2726 81.8817 16.8173 81.8817 16.3426C81.8817 15.8679 81.6931 15.4126 81.3574 15.0769C81.0217 14.7412 80.5664 14.5526 80.0916 14.5526C79.6169 14.5526 79.1616 14.7412 78.8259 15.0769C78.4902 15.4126 78.3016 15.8679 78.3016 16.3426C78.3016 16.8173 78.4902 17.2726 78.8259 17.6083C79.1616 17.944 79.6169 18.1326 80.0916 18.1326ZM86.9472 39.5183C86.6115 39.854 86.1563 40.0426 85.6815 40.0426C85.4464 40.0426 85.2137 39.9963 84.9965 39.9063C84.7794 39.8164 84.582 39.6845 84.4158 39.5183C84.2496 39.3521 84.1177 39.1548 84.0278 38.9376C83.9378 38.7204 83.8915 38.4877 83.8915 38.2526C83.8915 37.7779 84.0801 37.3226 84.4158 36.9869C84.7515 36.6512 85.2068 36.4626 85.6815 36.4626C86.1563 36.4626 86.6115 36.6512 86.9472 36.9869C87.2829 37.3226 87.4715 37.7779 87.4715 38.2526C87.4715 38.7273 87.2829 39.1826 86.9472 39.5183ZM25.5416 67.1326C25.3065 67.1326 25.0737 67.1789 24.8566 67.2688C24.6394 67.3588 24.442 67.4906 24.2758 67.6569C24.1096 67.8231 23.9778 68.0204 23.8878 68.2376C23.7979 68.4547 23.7516 68.6875 23.7516 68.9226C23.7516 69.3973 23.9401 69.8526 24.2758 70.1883C24.6115 70.524 25.0668 70.7126 25.5416 70.7126C26.0163 70.7126 26.4716 70.524 26.8073 70.1883C27.143 69.8526 27.3315 69.3973 27.3315 68.9226C27.3315 68.6875 27.2853 68.4547 27.1953 68.2376C27.1054 68.0204 26.9735 67.8231 26.8073 67.6569C26.6411 67.4906 26.4437 67.3588 26.2266 67.2688C26.0094 67.1789 25.7766 67.1326 25.5416 67.1326ZM11.8488 23.628C11.627 23.7155 11.3899 23.7579 11.1515 23.7526C10.6837 23.7421 10.2386 23.5489 9.91156 23.2144C9.58447 22.8798 9.40137 22.4305 9.40149 21.9626C9.40149 21.4878 9.59009 21.0326 9.92578 20.6969C10.2615 20.3612 10.7168 20.1726 11.1915 20.1726C11.6663 20.1726 12.1215 20.3612 12.4572 20.6969C12.7929 21.0326 12.9815 21.4878 12.9815 21.9626C12.9816 22.2011 12.934 22.4371 12.8416 22.657C12.7491 22.8768 12.6137 23.0759 12.4432 23.2427C12.2727 23.4094 12.0706 23.5404 11.8488 23.628Z" fill="white"/>
</svg>
