<svg width="54" height="65" viewBox="0 0 54 65" fill="none" xmlns="http://www.w3.org/2000/svg">
<path d="M2.83375 34.4093C2.71614 34.2783 2.57373 34.1721 2.41474 34.0966C2.25575 34.0211 2.08337 33.9779 1.90757 33.9695C1.73177 33.9612 1.55605 33.9878 1.3906 34.0478C1.22516 34.1078 1.07328 34.2001 0.943766 34.3193L0.45376 34.7593C0.187425 34.9941 0.025195 35.3251 0.00269513 35.6795C-0.0198047 36.0338 0.09927 36.3826 0.333765 36.6493C0.459187 36.7914 0.612924 36.9057 0.785135 36.985C0.957346 37.0642 1.14421 37.1065 1.33375 37.1093C1.66205 37.1088 1.97876 36.9878 2.22376 36.7693L2.74375 36.2993C2.874 36.181 2.97948 36.038 3.05409 35.8787C3.12869 35.7193 3.17094 35.5468 3.17838 35.371C3.18583 35.1952 3.15832 35.0197 3.09745 34.8546C3.03658 34.6895 2.94355 34.5382 2.82377 34.4093H2.83375Z" fill="white"/>
<path d="M3.73398 33.4094C3.96075 33.5648 4.22904 33.6484 4.50397 33.6494C4.7207 33.6496 4.93421 33.5969 5.12592 33.4959C5.31764 33.3948 5.48176 33.2484 5.60398 33.0694C7.81398 29.8994 8.14398 26.7594 8.60398 21.0694C8.62458 20.8905 8.60891 20.7093 8.55793 20.5366C8.50695 20.3639 8.4217 20.2033 8.30726 20.0643C8.19281 19.9253 8.05154 19.8108 7.89185 19.7276C7.73216 19.6444 7.55734 19.5943 7.37784 19.5802C7.19835 19.5661 7.01784 19.5883 6.84711 19.6455C6.67639 19.7026 6.51893 19.7937 6.38416 19.9131C6.24939 20.0325 6.14007 20.1778 6.06272 20.3404C5.98537 20.503 5.94158 20.6795 5.93396 20.8594C5.51396 26.2594 5.23399 28.9694 3.42399 31.5794C3.32252 31.7237 3.25053 31.8867 3.21219 32.0589C3.17386 32.2311 3.16991 32.4092 3.20057 32.5829C3.23123 32.7567 3.29591 32.9226 3.39087 33.0713C3.48584 33.22 3.60923 33.3485 3.75397 33.4494L3.73398 33.4094Z" fill="white"/>
<path d="M44.7637 18.6193C44.8299 18.9201 44.9968 19.1892 45.2369 19.382C45.477 19.5748 45.7758 19.6797 46.0837 19.6793H46.3637C46.7042 19.596 46.999 19.3835 47.1856 19.0868C47.3722 18.79 47.4361 18.4323 47.3637 18.0893L47.1837 17.3093C47.0962 16.9645 46.8753 16.6687 46.5696 16.4868C46.2639 16.3048 45.8985 16.2518 45.5537 16.3393C45.2089 16.4268 44.9131 16.6477 44.7311 16.9534C44.5492 17.2591 44.4962 17.6246 44.5837 17.9693C44.6337 18.1993 44.6937 18.4193 44.7337 18.6493L44.7637 18.6193Z" fill="white"/>
<path d="M53.2138 34.6794C49.2838 31.4094 48.4238 28.2294 47.8738 21.8694C47.8602 21.6929 47.8118 21.5209 47.7314 21.3632C47.6509 21.2055 47.54 21.0654 47.4051 20.9508C47.2702 20.8362 47.1139 20.7495 46.9453 20.6957C46.7767 20.6418 46.5991 20.622 46.4227 20.6371C46.2464 20.6523 46.0748 20.7023 45.9179 20.7842C45.761 20.8661 45.6218 20.9782 45.5085 21.1142C45.3951 21.2501 45.3098 21.4072 45.2575 21.5763C45.2053 21.7454 45.187 21.9232 45.2038 22.0994C45.7938 28.9694 46.8838 32.9094 51.5038 36.7494C51.7444 36.9519 52.0493 37.0618 52.3638 37.0594C52.641 37.0604 52.9118 36.9755 53.1387 36.8162C53.3656 36.6569 53.5375 36.4312 53.6307 36.1701C53.724 35.909 53.734 35.6254 53.6593 35.3585C53.5846 35.0915 53.429 34.8542 53.2138 34.6794Z" fill="white"/>
<path d="M48.2737 44.1893H5.42368C5.36206 43.5942 5.36206 42.9943 5.42368 42.3993C5.55368 41.1993 5.90367 40.5893 6.10367 40.4793C10.5937 37.8793 13.1637 31.6593 13.9537 21.4793C14.1769 18.2074 15.634 15.1423 18.0306 12.9037C20.4271 10.6651 23.5842 9.41989 26.8636 9.41989C30.1431 9.41989 33.3002 10.6651 35.6968 12.9037C38.0933 15.1423 39.5505 18.2074 39.7737 21.4793C39.9793 25.5746 40.7845 29.6177 42.1637 33.4793H37.1637C36.827 33.5083 36.5134 33.6626 36.2849 33.9117C36.0565 34.1607 35.9298 34.4863 35.9298 34.8243C35.9298 35.1622 36.0565 35.4879 36.2849 35.7369C36.5134 35.9859 36.827 36.1402 37.1637 36.1693H43.4937C44.0467 37.142 44.7185 38.0423 45.4937 38.8493H32.0837C31.747 38.8783 31.4334 39.0326 31.205 39.2816C30.9765 39.5307 30.8497 39.8563 30.8497 40.1943C30.8497 40.5322 30.9765 40.8579 31.205 41.1069C31.4334 41.3559 31.747 41.5102 32.0837 41.5393H48.1337C48.2065 41.8316 48.2567 42.1292 48.2837 42.4293C48.3554 43.0238 48.3554 43.6248 48.2837 44.2193L48.2737 44.1893ZM26.8537 51.0293C25.6302 51.0289 24.4418 50.6206 23.4765 49.869C22.5111 49.1173 21.824 48.0653 21.5237 46.8793H32.1837C31.8834 48.0653 31.1962 49.1173 30.2308 49.869C29.2655 50.6206 28.0771 51.0289 26.8537 51.0293ZM26.8537 2.69928C27.2492 2.69928 27.6359 2.81658 27.9648 3.03635C28.2937 3.25611 28.55 3.56845 28.7014 3.9339C28.8528 4.29935 28.8924 4.70149 28.8152 5.08945C28.7381 5.47741 28.5476 5.83379 28.2679 6.11349C27.9882 6.3932 27.6318 6.58366 27.2438 6.66083C26.8559 6.738 26.4537 6.6984 26.0883 6.54703C25.7228 6.39565 25.4105 6.13932 25.1907 5.81042C24.971 5.48153 24.8537 5.09484 24.8537 4.69928C24.8537 4.16885 25.0644 3.66014 25.4395 3.28506C25.8145 2.90999 26.3232 2.69928 26.8537 2.69928ZM50.2537 39.5593L50.1937 39.4593C49.905 38.9195 49.4768 38.4671 48.9537 38.1493C45.3337 36.0593 43.1437 30.3693 42.4337 21.2393C42.1781 17.9904 40.9228 14.9004 38.8404 12.3936C36.758 9.88684 33.9505 8.08628 30.8037 7.23926C31.2595 6.52919 31.5159 5.70951 31.5457 4.86621C31.5756 4.02292 31.3778 3.18714 30.9733 2.44662C30.5687 1.70611 29.9722 1.08815 29.2465 0.657654C28.5207 0.227156 27.6925 0 26.8487 0C26.0048 0 25.1766 0.227156 24.4508 0.657654C23.7251 1.08815 23.1286 1.70611 22.7241 2.44662C22.3195 3.18714 22.1218 4.02292 22.1516 4.86621C22.1815 5.70951 22.4378 6.52919 22.8937 7.23926C19.7475 8.08759 16.9408 9.88854 14.8586 12.3951C12.7764 14.9016 11.5207 17.9909 11.2637 21.2393C10.5637 30.3693 8.37365 36.0593 4.74365 38.1493C3.69365 38.7593 3.01365 40.0393 2.74365 41.8693C2.59365 43.0593 2.54367 45.5493 3.47367 46.4793C3.72678 46.7303 4.06723 46.8736 4.42368 46.8793H18.7537C19.0704 48.7909 20.0554 50.5281 21.5333 51.7812C23.0112 53.0344 24.886 53.7223 26.8237 53.7223C28.7614 53.7223 30.6361 53.0344 32.114 51.7812C33.5919 50.5281 34.577 48.7909 34.8937 46.8793H49.2137C49.5708 46.8768 49.9124 46.733 50.1637 46.4793C51.1037 45.5493 51.0537 43.0593 50.8937 41.8693C50.8069 41.0661 50.5801 40.2843 50.2237 39.5593H50.2537Z" fill="white"/>
<path d="M40.274 61.7693H13.424C13.0686 61.7693 12.7278 61.9105 12.4765 62.1618C12.2252 62.4131 12.084 62.7539 12.084 63.1093C12.084 63.4647 12.2252 63.8055 12.4765 64.0568C12.7278 64.3081 13.0686 64.4493 13.424 64.4493H40.274C40.6294 64.4493 40.9702 64.3081 41.2215 64.0568C41.4728 63.8055 41.614 63.4647 41.614 63.1093C41.614 62.7539 41.4728 62.4131 41.2215 62.1618C40.9702 61.9105 40.6294 61.7693 40.274 61.7693Z" fill="white"/>
<path d="M27.2537 38.8193H26.5037C26.3173 38.8032 26.1296 38.8261 25.9525 38.8863C25.7755 38.9466 25.6128 39.0431 25.475 39.1696C25.3371 39.296 25.2271 39.4497 25.1518 39.621C25.0765 39.7922 25.0376 39.9773 25.0376 40.1643C25.0376 40.3514 25.0765 40.5364 25.1518 40.7077C25.2271 40.8789 25.3371 41.0327 25.475 41.1591C25.6128 41.2856 25.7755 41.382 25.9525 41.4423C26.1296 41.5026 26.3173 41.5254 26.5037 41.5093H27.3037C27.6404 41.4803 27.9539 41.326 28.1824 41.077C28.4109 40.8279 28.5376 40.5023 28.5376 40.1643C28.5376 39.8264 28.4109 39.5007 28.1824 39.2517C27.9539 39.0027 27.6404 38.8484 27.3037 38.8193H27.2537Z" fill="white"/>
</svg>
