<svg width="75" height="68" viewBox="0 0 75 68" fill="none" xmlns="http://www.w3.org/2000/svg">
<path fill-rule="evenodd" clip-rule="evenodd" d="M65.58 0H9.33002C6.85463 0.00265031 4.48154 0.987854 2.73212 2.73916C0.982689 4.49046 0 6.86461 0 9.34V43.25C0.00264704 45.7237 0.986516 48.0952 2.73566 49.8444C4.4848 51.5935 6.85636 52.5774 9.33002 52.58H65.58C68.0537 52.5774 70.4252 51.5935 72.1744 49.8444C73.9235 48.0952 74.9074 45.7237 74.91 43.25V9.34C74.91 6.86461 73.9273 4.49046 72.1779 2.73916C70.4285 0.987854 68.0554 0.00265031 65.58 0ZM70.91 43.25C70.91 44.6636 70.3484 46.0193 69.3489 47.0189C68.3493 48.0185 66.9936 48.58 65.58 48.58H9.33002C7.91641 48.58 6.56073 48.0185 5.56116 47.0189C4.56159 46.0193 4 44.6636 4 43.25V9.34C4 7.92548 4.56126 6.56874 5.56055 5.56758C6.55983 4.56642 7.91549 4.00265 9.33002 4H65.58C66.9945 4.00265 68.3502 4.56642 69.3495 5.56758C70.3488 6.56874 70.91 7.92548 70.91 9.34V43.25ZM70.8098 63.32C51.3998 54.62 23.3399 54.62 4.08987 63.32C3.65316 63.5629 3.32319 63.9605 3.16494 64.4345C3.00669 64.9084 3.03164 65.4245 3.23482 65.881C3.43801 66.3376 3.8047 66.7015 4.26278 66.9012C4.72085 67.1009 5.2371 67.1219 5.70986 66.96C24.0099 58.7 50.7099 58.7 69.1599 66.96C69.4011 67.0783 69.6637 67.1468 69.932 67.1613C70.2003 67.1759 70.4688 67.1362 70.7214 67.0448C70.974 66.9533 71.2056 66.8118 71.4024 66.6288C71.5991 66.4459 71.757 66.2251 71.8665 65.9798C71.9761 65.7345 72.0351 65.4696 72.0401 65.2009C72.045 64.9323 71.9957 64.6654 71.8952 64.4162C71.7947 64.167 71.6451 63.9407 71.4552 63.7506C71.2652 63.5605 71.039 63.4107 70.7899 63.31L70.8098 63.32ZM60.7687 11.1565C61.0195 11.3156 61.2317 11.5286 61.3899 11.78C61.5644 12.0585 61.6675 12.3758 61.6902 12.7037C61.7129 13.0316 61.6544 13.3601 61.5199 13.66L59.5699 23.5C59.4784 23.9604 59.228 24.374 58.8624 24.6683C58.4967 24.9626 58.0392 25.119 57.5699 25.11C57.4401 25.1199 57.3097 25.1199 57.1799 25.11C56.919 25.0632 56.67 24.965 56.4474 24.8211C56.2248 24.6772 56.033 24.4905 55.8832 24.2718C55.7334 24.0532 55.6286 23.8069 55.5748 23.5474C55.521 23.2878 55.5193 23.0202 55.5699 22.76L56.7099 17L19.1299 40.22L24.6199 41.49C25.1503 41.5497 25.6353 41.8176 25.9682 42.2349C26.3011 42.6521 26.4546 43.1846 26.3949 43.715C26.3352 44.2454 26.0673 44.7304 25.65 45.0633C25.2328 45.3962 24.7004 45.5497 24.1699 45.49C24.0147 45.4897 23.86 45.4695 23.7099 45.43L13.7099 43.11C13.4257 43.0798 13.1513 42.9891 12.9052 42.8439C12.6591 42.6988 12.4469 42.5026 12.283 42.2686C12.1191 42.0345 12.0072 41.7681 11.9549 41.4871C11.9026 41.2062 11.9112 40.9173 11.9799 40.64L14.3499 30.39C14.409 30.1339 14.5179 29.892 14.6705 29.678C14.8231 29.464 15.0164 29.2822 15.2393 29.1429C15.4621 29.0037 15.7102 28.9096 15.9694 28.8662C16.2286 28.8228 16.4938 28.8309 16.7499 28.89C17.006 28.9491 17.2479 29.058 17.4618 29.2106C17.6758 29.3632 17.8577 29.5565 17.9969 29.7793C18.1362 30.0022 18.2303 30.2503 18.2737 30.5095C18.3171 30.7687 18.309 31.0339 18.2499 31.29L16.9499 36.9L54.2899 13.85L48.8999 12.78C48.3803 12.6762 47.9231 12.3704 47.6287 11.9298C47.3344 11.4892 47.2269 10.9498 47.3299 10.43C47.4337 9.91038 47.7395 9.4532 48.1801 9.15884C48.6207 8.86447 49.1601 8.75699 49.6799 8.85999L59.9399 10.86C60.2347 10.896 60.5179 10.9973 60.7687 11.1565Z" fill="white"/>
</svg>
