<svg width="91" height="65" viewBox="0 0 91 65" fill="none" xmlns="http://www.w3.org/2000/svg">
<path d="M60.1584 40.9839H50.4178V34.0674H57.2267C58.0924 34.0674 58.7941 33.3656 58.7941 32.5C58.7941 31.6344 58.0924 30.9326 57.2267 30.9326H50.4178V24.0159H60.1584C61.024 24.0159 61.7257 23.3141 61.7257 22.4485C61.7257 21.5829 61.024 20.8811 60.1584 20.8811H48.8505C47.9848 20.8811 47.2831 21.5829 47.2831 22.4485V42.5513C47.2831 43.4169 47.9848 44.1187 48.8505 44.1187H60.1584C61.024 44.1187 61.7257 43.4169 61.7257 42.5513C61.7257 41.6857 61.024 40.9839 60.1584 40.9839Z" fill="white"/>
<path d="M39.1984 35.1442C41.8492 34.0082 43.7108 31.3735 43.7108 28.3117C43.7108 24.2144 40.3773 20.8811 36.28 20.8811H28.7476C27.8819 20.8811 27.1802 21.5829 27.1802 22.4485V42.5513C27.1802 43.4169 27.8819 44.1186 28.7476 44.1186C29.6132 44.1186 30.3149 43.4169 30.3149 42.5513V35.7424H36.0618L39.0124 43.1324C39.2574 43.7458 39.8461 44.119 40.4686 44.119C40.6619 44.119 40.8588 44.0831 41.0494 44.0068C41.8534 43.6858 42.2448 42.774 41.9238 41.9699L39.1984 35.1442ZM36.28 32.6078H30.3149V24.0159H36.28C38.6488 24.0159 40.576 25.9431 40.576 28.3117C40.576 30.6806 38.6488 32.6078 36.28 32.6078Z" fill="white"/>
<path d="M78.064 39.6232C76.8791 40.5135 75.4664 40.9841 73.979 40.9841C70.2246 40.9841 67.1701 37.9296 67.1701 34.1752V30.8248C67.1701 27.0704 70.2246 24.0159 73.979 24.0159C75.4682 24.0159 76.8824 24.4875 78.0682 25.3799C78.7599 25.9005 79.7428 25.7615 80.263 25.07C80.7835 24.3782 80.6448 23.3956 79.953 22.8752C78.2193 21.5705 76.1535 20.8811 73.9788 20.8811C68.4959 20.8811 64.0352 25.3419 64.0352 30.8248V34.1752C64.0356 39.6581 68.4963 44.1189 73.9792 44.1189C76.1512 44.1189 78.2147 43.4309 79.947 42.1294C80.6391 41.6094 80.7785 40.627 80.2586 39.9348C79.7386 39.2427 78.756 39.1033 78.064 39.6232Z" fill="white"/>
<path d="M13.6702 0.778198H1.94372C1.07811 0.778198 0.376343 1.47997 0.376343 2.34558V14.0723C0.376343 14.9379 1.07811 15.6397 1.94372 15.6397C2.80933 15.6397 3.5111 14.9379 3.5111 14.0723V3.91296H13.6704C14.536 3.91296 15.2378 3.21119 15.2378 2.34558C15.2378 1.47997 14.5358 0.778198 13.6702 0.778198Z" fill="white"/>
<path d="M89.0562 49.3604C88.1906 49.3604 87.4888 50.0622 87.4888 50.9278V61.0871H77.3295C76.4639 61.0871 75.7621 61.7889 75.7621 62.6545C75.7621 63.5201 76.4639 64.2219 77.3295 64.2219H89.0562C89.9218 64.2219 90.6236 63.5201 90.6236 62.6545V50.9278C90.6236 50.0622 89.9218 49.3604 89.0562 49.3604Z" fill="white"/>
<path d="M89.0562 0.778198H77.3295C76.4639 0.778198 75.7621 1.47997 75.7621 2.34558C75.7621 3.21119 76.4639 3.91296 77.3295 3.91296H87.4888V14.0723C87.4888 14.9379 88.1906 15.6397 89.0562 15.6397C89.9218 15.6397 90.6236 14.9379 90.6236 14.0723V2.34558C90.6236 1.47997 89.9218 0.778198 89.0562 0.778198Z" fill="white"/>
<path d="M13.6704 61.0871H3.5111V50.9278C3.5111 50.0622 2.80933 49.3604 1.94372 49.3604C1.07811 49.3604 0.376343 50.0622 0.376343 50.9278V62.6545C0.376343 63.5201 1.07811 64.2219 1.94372 64.2219H13.6704C14.536 64.2219 15.2378 63.5201 15.2378 62.6545C15.2378 61.7889 14.536 61.0871 13.6704 61.0871Z" fill="white"/>
<path d="M13.6702 25.907C10.0347 25.907 7.07715 28.8645 7.07715 32.5C7.07715 36.1355 10.0347 39.093 13.6702 39.093C17.3056 39.093 20.2632 36.1355 20.2632 32.5C20.2632 28.8645 17.3056 25.907 13.6702 25.907ZM13.6704 35.9583C11.7634 35.9583 10.2119 34.407 10.2119 32.5C10.2119 30.593 11.7632 29.0417 13.6702 29.0417C15.5771 29.0417 17.1286 30.593 17.1286 32.5C17.1286 34.407 15.5774 35.9583 13.6704 35.9583Z" fill="white"/>
<path d="M37.1237 61.0872H20.3713C19.5057 61.0872 18.804 61.7889 18.804 62.6545C18.804 63.5201 19.5057 64.2219 20.3713 64.2219H37.1237C37.9893 64.2219 38.6911 63.5201 38.6911 62.6545C38.6911 61.7889 37.9893 61.0872 37.1237 61.0872Z" fill="white"/>
</svg>
