<svg width="71" height="63" viewBox="0 0 71 63" fill="none" xmlns="http://www.w3.org/2000/svg">
<path d="M56.4497 8.02991H53.7697C53.4143 8.02991 53.0734 8.17109 52.8221 8.42238C52.5708 8.67368 52.4297 9.01452 52.4297 9.36991C52.4297 9.7253 52.5708 10.0661 52.8221 10.3174C53.0734 10.5687 53.4143 10.7099 53.7697 10.7099H56.4497C56.8051 10.7099 57.1459 10.5687 57.3972 10.3174C57.6485 10.0661 57.7897 9.7253 57.7897 9.36991C57.7897 9.01452 57.6485 8.67368 57.3972 8.42238C57.1459 8.17109 56.8051 8.02991 56.4497 8.02991Z" fill="white"/>
<path d="M48.3999 8.02991H45.7199C45.3645 8.02991 45.0237 8.17109 44.7724 8.42238C44.5211 8.67368 44.3799 9.01452 44.3799 9.36991C44.3799 9.7253 44.5211 10.0661 44.7724 10.3174C45.0237 10.5687 45.3645 10.7099 45.7199 10.7099H48.3999C48.7553 10.7099 49.0961 10.5687 49.3474 10.3174C49.5987 10.0661 49.7399 9.7253 49.7399 9.36991C49.7399 9.01452 49.5987 8.67368 49.3474 8.42238C49.0961 8.17109 48.7553 8.02991 48.3999 8.02991Z" fill="white"/>
<path d="M12.1899 5.34998C11.3988 5.34998 10.6255 5.58457 9.96767 6.0241C9.30987 6.46362 8.79718 7.08834 8.49443 7.81924C8.19168 8.55015 8.11246 9.35441 8.2668 10.1303C8.42114 10.9063 8.80209 11.619 9.3615 12.1784C9.92091 12.7378 10.6336 13.1188 11.4096 13.2731C12.1855 13.4275 12.9898 13.3482 13.7207 13.0455C14.4516 12.7427 15.0763 12.2301 15.5158 11.5723C15.9553 10.9145 16.1899 10.1411 16.1899 9.34998C16.1899 8.28911 15.7685 7.27169 15.0184 6.52155C14.2682 5.7714 13.2508 5.34998 12.1899 5.34998ZM12.1899 10.71C11.9249 10.71 11.6658 10.6314 11.4455 10.4841C11.2251 10.3369 11.0534 10.1276 10.952 9.88277C10.8505 9.63792 10.824 9.36849 10.8757 9.10855C10.9274 8.84862 11.055 8.60985 11.2424 8.42245C11.4298 8.23505 11.6686 8.10743 11.9285 8.05572C12.1884 8.00402 12.4579 8.03056 12.7027 8.13198C12.9476 8.2334 13.1569 8.40515 13.3041 8.62551C13.4513 8.84587 13.5299 9.10495 13.5299 9.36998C13.5299 9.72537 13.3888 10.0662 13.1375 10.3175C12.8862 10.5688 12.5453 10.71 12.1899 10.71Z" fill="white"/>
<path d="M12.1899 21.4399C11.3988 21.4399 10.6255 21.6745 9.96767 22.1141C9.30987 22.5536 8.79718 23.1783 8.49443 23.9092C8.19168 24.6401 8.11246 25.4444 8.2668 26.2203C8.42114 26.9962 8.80209 27.709 9.3615 28.2684C9.92091 28.8278 10.6336 29.2087 11.4096 29.3631C12.1855 29.5174 12.9898 29.4382 13.7207 29.1355C14.4516 28.8327 15.0763 28.32 15.5158 27.6622C15.9553 27.0044 16.1899 26.2311 16.1899 25.4399C16.1899 24.3791 15.7685 23.3617 15.0184 22.6115C14.2682 21.8614 13.2508 21.4399 12.1899 21.4399ZM12.1899 26.7999C11.9249 26.7999 11.6658 26.7214 11.4455 26.5741C11.2251 26.4269 11.0534 26.2176 10.952 25.9727C10.8505 25.7279 10.824 25.4585 10.8757 25.1985C10.9274 24.9386 11.055 24.6998 11.2424 24.5124C11.4298 24.325 11.6686 24.1974 11.9285 24.1457C12.1884 24.094 12.4579 24.1205 12.7027 24.2219C12.9476 24.3234 13.1569 24.4951 13.3041 24.7155C13.4513 24.9358 13.5299 25.1949 13.5299 25.4599C13.5299 25.8153 13.3888 26.1562 13.1375 26.4075C12.8862 26.6588 12.5453 26.7999 12.1899 26.7999Z" fill="white"/>
<path d="M12.1899 37.5299C11.3988 37.5299 10.6255 37.7645 9.96767 38.204C9.30987 38.6436 8.79718 39.2683 8.49443 39.9992C8.19168 40.7301 8.11246 41.5343 8.2668 42.3103C8.42114 43.0862 8.80209 43.7989 9.3615 44.3583C9.92091 44.9177 10.6336 45.2987 11.4096 45.453C12.1855 45.6074 12.9898 45.5282 13.7207 45.2254C14.4516 44.9227 15.0763 44.41 15.5158 43.7522C15.9553 43.0944 16.1899 42.321 16.1899 41.5299C16.1899 40.469 15.7685 39.4516 15.0184 38.7015C14.2682 37.9513 13.2508 37.5299 12.1899 37.5299ZM12.1899 42.8999C11.9249 42.8999 11.6658 42.8213 11.4455 42.6741C11.2251 42.5268 11.0534 42.3176 10.952 42.0727C10.8505 41.8279 10.824 41.5584 10.8757 41.2985C10.9274 41.0386 11.055 40.7998 11.2424 40.6124C11.4298 40.425 11.6686 40.2974 11.9285 40.2457C12.1884 40.194 12.4579 40.2205 12.7027 40.3219C12.9476 40.4233 13.1569 40.5951 13.3041 40.8154C13.4513 41.0358 13.5299 41.2949 13.5299 41.5599C13.5299 41.9153 13.3888 42.2561 13.1375 42.5074C12.8862 42.7587 12.5453 42.8999 12.1899 42.8999Z" fill="white"/>
<path d="M50.3899 61.08C60.7287 61.08 69.1099 52.6988 69.1099 42.36C69.1099 32.0212 60.7287 23.64 50.3899 23.64C40.0512 23.64 31.6699 32.0212 31.6699 42.36C31.6699 52.6988 40.0512 61.08 50.3899 61.08Z" stroke="white" stroke-width="3" stroke-miterlimit="10"/>
<path fill-rule="evenodd" clip-rule="evenodd" d="M64.5 6.71V12.05C64.4812 13.1063 64.2133 14.1431 63.7181 15.0763C63.2228 16.0094 62.5142 16.8124 61.65 17.42C62.4931 18.0372 63.1793 18.8438 63.6535 19.7748C64.1277 20.7058 64.3765 21.7352 64.38 22.78V27.7611C63.583 26.9971 62.7235 26.2978 61.81 25.6715V22.78C61.81 22.2513 61.7052 21.7279 61.5017 21.24C61.2982 20.752 61 20.3093 60.6243 19.9373C60.2486 19.5654 59.8029 19.2716 59.313 19.0729C58.8231 18.8743 58.2986 18.7747 57.77 18.78H6.77C5.70914 18.78 4.69172 19.2014 3.94157 19.9516C3.19143 20.7017 2.77 21.7191 2.77 22.78V28.16C2.77348 28.3949 2.79689 28.6291 2.84 28.86C2.87469 29.0439 2.92487 29.2245 2.99001 29.4C3.00063 29.4583 3.01738 29.5153 3.03999 29.57C3.09645 29.7179 3.16329 29.8616 3.24001 30C3.2773 30.0831 3.32075 30.1633 3.37 30.24C3.44072 30.3628 3.52097 30.4798 3.61 30.59C3.67446 30.681 3.74459 30.7678 3.81999 30.85L4.08 31.12C4.18228 31.2088 4.28908 31.2922 4.39999 31.37C4.48245 31.4389 4.56931 31.5024 4.66 31.56C4.79891 31.6447 4.94247 31.7215 5.09 31.79L5.31 31.89C5.50017 31.9695 5.69782 32.0298 5.89999 32.07H6.02C6.27376 32.1185 6.53165 32.142 6.78999 32.14H32.9391C32.4264 33.0135 31.9774 33.929 31.5986 34.88H6.78999C5.72913 34.88 4.71172 35.3014 3.96158 36.0516C3.21143 36.8017 2.78999 37.8191 2.78999 38.88V44.23C2.79464 44.4445 2.81469 44.6584 2.84999 44.87C2.87935 45.0358 2.91944 45.1994 2.97 45.36C3.21053 46.1927 3.71503 46.9248 4.40758 47.446C5.10012 47.9672 5.94323 48.2494 6.81 48.25H31.0412C31.3207 49.1695 31.664 50.0612 32.0659 50.92H6.7C4.93419 50.9175 3.24055 50.219 1.98633 48.976C0.732109 47.733 0.0184194 46.0457 0 44.28V44.22V38.86C0.000722412 37.8144 0.247271 36.7835 0.719757 35.8507C1.19224 34.9179 1.87743 34.1092 2.72 33.49C2.50877 33.3373 2.30829 33.1702 2.12 32.99C1.95 32.83 1.79999 32.67 1.64999 32.5L1.53 32.34C1.41543 32.2062 1.30858 32.066 1.20999 31.92L1.06 31.69L0.839996 31.31L0.690002 31.02L0.539993 30.67C0.511958 30.6027 0.487071 30.5323 0.463564 30.4658C0.445146 30.4136 0.427576 30.3639 0.410004 30.32C0.370004 30.22 0.349998 30.15 0.309998 30.01C0.297015 29.9646 0.280872 29.9202 0.264987 29.8765C0.231932 29.7856 0.199997 29.6978 0.199997 29.61C0.195153 29.5201 0.195153 29.4299 0.199997 29.34C0.119997 29.19 0.119995 29.03 0.119995 28.87V28.17V22.8C0.119901 21.7556 0.366161 20.7259 0.838776 19.7946C1.31139 18.8633 1.99703 18.0566 2.84 17.44C1.99742 16.8208 1.31225 16.0121 0.839767 15.0793C0.367282 14.1465 0.120718 13.1156 0.119995 12.07V6.71C0.11733 4.9365 0.817939 3.2343 2.06824 1.9765C3.31854 0.718706 5.01651 0.00793904 6.78999 0H57.79C59.5688 0.00264505 61.274 0.710439 62.5318 1.96824C63.7896 3.22603 64.4973 4.93121 64.5 6.71ZM60.6384 14.8784C61.3886 14.1283 61.81 13.1109 61.81 12.05V6.71C61.81 5.64913 61.3886 4.63172 60.6384 3.88157C59.8883 3.13143 58.8709 2.71 57.81 2.71H6.81C5.74913 2.71 4.73171 3.13143 3.98157 3.88157C3.23142 4.63172 2.81 5.64913 2.81 6.71V12.05C2.81 13.1109 3.23142 14.1283 3.98157 14.8784C4.73171 15.6286 5.74913 16.05 6.81 16.05H57.81C58.8709 16.05 59.8883 15.6286 60.6384 14.8784Z" fill="white"/>
<path d="M50.5097 54.38C50.5097 54.38 43.3597 47.84 42.0097 45.29C41.0097 43.34 40.7197 34.53 40.7197 34.53C40.7197 34.53 48.0497 35.71 50.5097 35.71C52.9697 35.71 60.3098 34.5 60.3098 34.5C60.3098 34.5 60.0797 43.25 59.0697 45.17C57.7197 47.77 50.5097 54.38 50.5097 54.38Z" stroke="white" stroke-width="3" stroke-linejoin="round"/>
</svg>
