<svg width="90" height="75" viewBox="0 0 90 75" fill="none" xmlns="http://www.w3.org/2000/svg">
<path fill-rule="evenodd" clip-rule="evenodd" d="M87.4371 18.2605V18.2005C81.761 12.4362 74.995 7.85847 67.533 4.73381C60.071 1.60916 52.0619 0 43.9721 0C35.8823 0 27.8732 1.60916 20.4112 4.73381C12.9492 7.85847 6.18321 12.4362 0.507137 18.2005C0.165307 18.584 -0.0158871 19.0842 0.00109431 19.5976C0.0180757 20.111 0.231903 20.5982 0.598323 20.9581C0.964743 21.3181 1.45562 21.5233 1.96923 21.5312C2.48284 21.5391 2.9798 21.3491 3.35711 21.0005C8.66049 15.6187 14.9809 11.345 21.9509 8.42786C28.9209 5.51077 36.4014 4.00854 43.9571 4.00854C51.5129 4.00854 58.9933 5.51077 65.9633 8.42786C72.9333 11.345 79.2537 15.6187 84.5571 21.0005C85.4482 21.8917 85.9489 23.1003 85.9489 24.3605C85.9489 25.6208 85.4482 26.8294 84.5571 27.7205C83.666 28.6117 82.4574 29.1123 81.1971 29.1123C79.9369 29.1123 78.7283 28.6117 77.8372 27.7205C73.4141 23.2105 68.136 19.6279 62.3118 17.1821C56.4875 14.7364 50.234 13.4766 43.9171 13.4766C37.6002 13.4766 31.3467 14.7364 25.5225 17.1821C19.6982 19.6279 14.4202 23.2105 9.99713 27.7205C9.2092 28.5131 8.58506 29.453 8.1604 30.4868C7.73573 31.5205 7.51884 32.6277 7.52209 33.7453C7.52534 34.8628 7.74871 35.9688 8.17938 37.0001C8.61005 38.0313 9.23957 38.9676 10.0321 39.7555C10.8246 40.5435 11.7646 41.1676 12.7983 41.5923C13.8321 42.0169 14.9393 42.2338 16.0569 42.2306C17.1744 42.2273 18.2804 42.004 19.3116 41.5733C20.3429 41.1426 21.2792 40.5131 22.0671 39.7205C24.9082 36.8102 28.3027 34.4975 32.0508 32.9184C35.7989 31.3394 39.825 30.5259 43.8921 30.5259C47.9593 30.5259 51.9854 31.3394 55.7335 32.9184C59.4816 34.4975 62.876 36.8102 65.7171 39.7205C66.2657 40.3257 66.5689 41.1137 66.5671 41.9305C66.5671 42.8111 66.2173 43.6555 65.5947 44.2781C64.9721 44.9008 64.1276 45.2505 63.2471 45.2505C62.453 45.2501 61.6858 44.9624 61.0872 44.4405C57.2158 40.4792 52.1067 37.96 46.6071 37.3005H46.4271H46.0171C44.9209 37.3032 43.8704 37.7405 43.0962 38.5166C42.3219 39.2928 41.8871 40.3443 41.8871 41.4405V43.2305C39.2474 43.7073 36.8565 45.0896 35.1261 47.1394C33.3957 49.1892 32.4342 51.7782 32.4071 54.4605V60.9705C32.4071 61.644 32.5407 62.3109 32.8002 62.9324C33.0598 63.5538 33.4401 64.1177 33.9191 64.5911C34.3981 65.0645 34.9663 65.4382 35.5908 65.6904C36.1751 65.9265 36.7979 66.0518 37.4272 66.0604V72.7505C37.4272 73.8551 38.3227 74.7505 39.4272 74.7505C40.5318 74.7505 41.4272 73.8551 41.4272 72.7505V66.0605H46.4272V72.7505C46.4272 73.8551 47.3227 74.7505 48.4272 74.7505C49.5318 74.7505 50.4272 73.8551 50.4272 72.7505V66.0602C51.7564 66.0445 53.0279 65.5104 53.9698 64.5703C54.926 63.6161 55.4645 62.3214 55.4671 60.9705V54.4505C55.4387 51.7639 54.473 49.1715 52.7366 47.1211C51.0003 45.0707 48.6024 43.6911 45.9571 43.2205V41.3605C45.9568 41.3284 45.9662 41.2969 45.984 41.2701C46.0018 41.2434 46.0273 41.2226 46.0571 41.2105H46.1971C50.7971 41.7709 55.0668 43.8881 58.2971 47.2105L58.3972 47.3205C59.7893 48.5844 61.6143 49.2642 63.4941 49.2188C65.3738 49.1735 67.164 48.4065 68.4935 47.077C69.8231 45.7474 70.59 43.9572 70.6354 42.0775C70.6807 40.1978 70.001 38.3727 68.7371 36.9805C65.5228 33.6904 61.6832 31.0761 57.4441 29.2912C53.2049 27.5062 48.6517 26.5867 44.0521 26.5867C39.4525 26.5867 34.8993 27.5062 30.6602 29.2912C26.421 31.0761 22.5814 33.6904 19.3671 36.9805C18.9515 37.4008 18.4572 37.735 17.9123 37.9642C17.3675 38.1934 16.7829 38.313 16.1919 38.3163C15.6008 38.3195 15.0149 38.2063 14.4676 37.9831C13.9203 37.76 13.4224 37.4312 13.0021 37.0155C12.5819 36.5999 12.2477 36.1056 12.0185 35.5608C11.7893 35.0159 11.6696 34.4313 11.6664 33.8403C11.6631 33.2492 11.7763 32.6633 11.9995 32.116C12.2227 31.5687 12.5515 31.0708 12.9671 30.6505C17.0181 26.517 21.8531 23.2331 27.189 20.9913C32.5249 18.7495 38.2544 17.5948 44.0421 17.5948C49.8298 17.5948 55.5593 18.7495 60.8952 20.9913C66.2311 23.2331 71.0661 26.517 75.1171 30.6505C76.7768 32.187 78.9669 33.0212 81.2282 32.9782C83.4895 32.9351 85.6463 32.018 87.2462 30.4194C88.8461 28.8208 89.7649 26.6648 89.8098 24.4035C89.8547 22.1423 89.0223 19.9514 87.4871 18.2905L87.4371 18.2605ZM48.4272 62.0605L50.3372 62.0605C50.4811 62.0619 50.6239 62.0346 50.7573 61.9805C50.8907 61.9263 51.012 61.8462 51.1143 61.7448C51.2166 61.6435 51.2978 61.5229 51.3532 61.39C51.4086 61.2571 51.4371 61.1145 51.4371 60.9705V54.4805H51.4671C51.4671 52.4914 50.677 50.5838 49.2704 49.1772C47.8639 47.7707 45.9562 46.9805 43.9671 46.9805C41.978 46.9805 40.0703 47.7707 38.6638 49.1772C37.2573 50.5838 36.4671 52.4914 36.4671 54.4805V60.9705C36.4671 61.2596 36.582 61.5369 36.7864 61.7413C36.9908 61.9457 37.268 62.0605 37.5571 62.0605L39.4272 62.0605H48.4272Z" fill="white"/>
</svg>
