<svg width="21" height="21" viewBox="0 0 21 21" fill="none" xmlns="http://www.w3.org/2000/svg">
<circle cx="10.5" cy="10.5" r="10.5" fill="#BF4444"/>
<path d="M11.7832 12.0557H9.38379L9.00586 3.31055H12.1611L11.7832 12.0557ZM8.91797 14.7803C8.91797 14.3467 9.07324 13.9922 9.38379 13.7168C9.7002 13.4355 10.0928 13.2949 10.5615 13.2949C11.0303 13.2949 11.4199 13.4355 11.7305 13.7168C12.0469 13.9922 12.2051 14.3467 12.2051 14.7803C12.2051 15.2139 12.0469 15.5713 11.7305 15.8525C11.4199 16.1279 11.0303 16.2656 10.5615 16.2656C10.0928 16.2656 9.7002 16.1279 9.38379 15.8525C9.07324 15.5713 8.91797 15.2139 8.91797 14.7803Z" fill="white"/>
</svg>
